<?xml version="1.0" encoding="UTF-8"?>
<svg width="100" height="100" version="1.1" viewBox="0 0 3 3" xmlns="http://www.w3.org/2000/svg">
 <rect x=".15" y=".15" width="2.7" height="2.7" fill="none"/>
 <g clip-rule="evenodd" fill-rule="evenodd" stroke-linejoin="round" stroke-miterlimit="1.4142" stroke-width=".096431">
  <path d="m1.0178 2.754h0.96431c0.0084-3.857e-4 0.010505-1.929e-4 0.018805-0.00183 0.027869-0.0056 0.052843-0.024108 0.066248-0.049179 0.013303-0.024976 0.014947-0.055931 0.00404-0.082352-0.013215-0.031822-0.044551-0.055545-0.079652-0.059016-0.00318-2.894e-4 -0.00627-2.894e-4 -0.00945-4.822e-4h-0.11118l-0.083028-0.49797c-0.00183-0.00888-0.00425-0.017647-0.0081-0.025843-0.01427-0.029797-0.044648-0.051206-0.077916-0.054388-0.00309-2.892e-4 -0.00608-2.892e-4 -0.00907-3.856e-4h-0.38572c-0.00299 9.64e-5 -0.00598 2.892e-4 -0.00907 3.856e-4 -0.00897 0.00135-0.017839 0.00299-0.02623 0.00627-0.028061 0.011091-0.050145 0.035776-0.057955 0.06509-7.715e-4 0.00289-0.00125 0.00588-0.00183 0.00888l-0.083028 0.49797h-0.11119c-0.00318 1.928e-4 -0.00627 2.892e-4 -0.00945 4.822e-4 -0.00309 4.821e-4 -0.00627 7.713e-4 -0.009347 0.00135-0.037126 0.00743-0.068274 0.037993-0.075794 0.075794-0.006168 0.030955 0.004044 0.064705 0.026422 0.086981 0.013406 0.013406 0.030761 0.022661 0.049373 0.026422 0.008293 0.00164 0.010417 0.00145 0.018805 0.00183z" fill="#bdbdbd"/>
  <path d="m1.5 1.9826h-0.19286c-0.00299 9.64e-5 -0.00598 2.892e-4 -0.00907 3.856e-4 -0.00897 0.00135-0.017839 0.00299-0.02623 0.00627-0.028061 0.011091-0.050145 0.035776-0.057955 0.06509-7.715e-4 0.00289-0.00125 0.00588-0.00183 0.00888l-0.083028 0.49797h-0.11119l-0.00945 4.822e-4c-0.00309 4.821e-4 -0.00627 7.713e-4 -0.009347 0.00135-0.037126 0.00743-0.068274 0.037993-0.075794 0.075794-0.006168 0.030955 0.004044 0.064705 0.026422 0.086981 0.013406 0.013406 0.030761 0.022661 0.049373 0.026422 0.008292 0.00164 0.010417 0.00145 0.018805 0.00183h0.48215z" fill="#9e9e9e"/>
  <path d="m0.34221 0.24683c-0.059401 2.893e-4 -0.11842 0.029604-0.15429 0.077916-0.024397 0.032787-0.037801 0.073384-0.037995 0.11437-7.7153e-4 0.51465-7.7153e-4 1.0294 0 1.5441 2.9566e-4 0.059016 0.028928 0.11697 0.075988 0.15284 0.033173 0.025264 0.074348 0.039247 0.1163 0.039441 0.77183 0.00116 1.5437 0.00116 2.3155 0 0.060173-2.894e-4 0.11967-0.030086 0.15564-0.079749 0.02353-0.032498 0.03645-0.07213 0.036644-0.11253 8.678e-4 -0.51465 8.678e-4 -1.0294 0-1.5441-1.93e-4 -0.048794-0.019672-0.097202-0.05323-0.1325-0.03568-0.037415-0.086692-0.059498-0.13905-0.059787-0.77184-0.001157-1.5437-0.001157-2.3155-2.5e-7z" fill="#e0e0e0"/>
  <path d="m1.5 0.24596c-0.38592 0-0.77184 2.8929e-4 -1.1578 8.6787e-4 -0.059401 2.893e-4 -0.11842 0.029604-0.15429 0.077916-0.024397 0.032787-0.037801 0.073384-0.037995 0.11437-7.7153e-4 0.51465-7.7153e-4 1.0294 0 1.5441 2.9566e-4 0.059016 0.028928 0.11697 0.075988 0.15284 0.033173 0.025264 0.074348 0.039247 0.1163 0.039441 0.38592 5.786e-4 0.77183 8.678e-4 1.1578 8.678e-4z" fill="#bdbdbd"/>
  <rect transform="scale(-1,1)" x="-2.6571" y=".43969" width="1.1572" height="1.35" fill="#29b6f6"/>
  <rect transform="scale(-1,1)" x="-1.5" y=".43969" width="1.1572" height="1.35" fill="#03a9f4"/>
 </g>
</svg>
