<?xml version="1.0" encoding="UTF-8"?>
<svg width="100" height="100" version="1.1" viewBox="0 0 3 3" xmlns="http://www.w3.org/2000/svg">
 <g transform="matrix(1.0487 0 0 1.0487 -.24111 .2209)" stroke-width=".0957">
  <circle cx="1.6602" cy="1.2197" r="1.3398" fill="#1794d4"/>
  <path d="m1.8516 0.35836h-0.1914v0.1914h0.1914z" fill="#ffffff"/>
  <path d="m1.086 0.64546h0.1914v0.1914h-0.1914z" fill="#ffffff"/>
  <path d="m0.70334 1.3098c0.016354 0.27766 0.18171 0.67551 0.76546 0.67551 0.65076 0 0.94105-0.4785 1.0049-0.71775 0.079747 0 0.25839-0.04785 0.33495-0.23925-0.04785-0.04785-0.23925-0.04785-0.33495 0 0-0.07656-0.04785-0.23925-0.14355-0.2871-0.063803 0.063804-0.16269 0.22968-0.04785 0.3828-0.04785 0.0957-0.17545 0.0957-0.23925 0.0957h-1.2496c-0.050672 0-0.093068 0.039505-0.090088 0.090093z" fill="#ffffff"/>
  <path d="m0.99029 0.93256h-0.1914v0.1914h0.1914z" fill="#ffffff"/>
  <path d="m1.086 0.93256h0.1914v0.1914h-0.1914z" fill="#ffffff"/>
  <path d="m1.5645 0.93256h-0.1914v0.1914h0.1914z" fill="#ffffff"/>
  <path d="m1.6602 0.93256h0.1914v0.1914h-0.1914z" fill="#ffffff"/>
  <path d="m2.1387 0.93256h-0.1914v0.1914h0.1914z" fill="#ffffff"/>
  <path d="m1.5645 0.64546h-0.1914v0.1914h0.1914z" fill="#ffffff"/>
  <path d="m1.6602 0.64546h0.1914v0.1914h-0.1914z" fill="#ffffff"/>
 </g>
</svg>
