<?xml version="1.0" encoding="UTF-8"?>
<svg width="100" height="100" version="1.1" viewBox="0 0 3 3" xmlns="http://www.w3.org/2000/svg">
 <rect x=".15" y=".15" width="2.7" height="2.7" fill="none"/>
 <path d="m1.5 0.15c-0.74566 0-1.35 0.60434-1.35 1.35 0 0.74566 0.60434 1.35 1.35 1.35 0.74566 0 1.35-0.60434 1.35-1.35 0-0.74566-0.60434-1.35-1.35-1.35zm-0.37758 1.9148h-0.26314v-0.84217h0.26314zm-0.13869-0.94764h-0.002107c-0.095449 0-0.15715-0.064336-0.15715-0.14607 0-0.08332 0.063808-0.14607 0.16084-0.14607 0.097032 0 0.15662 0.062754 0.15873 0.14607 5.279e-4 0.081212-0.061171 0.14607-0.16031 0.14607zm1.1913 0.94764h-0.29848v-0.43559c0-0.11391-0.046406-0.19195-0.14924-0.19195-0.078574 0-0.12234 0.052735-0.14238 0.10336-0.00738 0.01793-0.00633 0.043242-0.00633 0.069083v0.4551h-0.29584s0.00369-0.77203 0-0.84217h0.29584v0.13236c0.017402-0.058008 0.1118-0.14027 0.26262-0.14027 0.18721 0 0.33381 0.12129 0.33381 0.3818z"/>
 <circle cx="1.5" cy="1.5" r="1.35" fill="none" stroke-width=".03"/>
 <text x="0.55608028" y="1.3600945" fill="none" font-family="sans-serif" font-size=".48px" font-weight="bold" stroke-width=".03" xml:space="preserve"><tspan x="0.55608028" y="1.3600945" stroke-width=".03">CV</tspan></text>
</svg>
