<?xml version="1.0" encoding="UTF-8"?>
<svg width="100" height="100" version="1.1" viewBox="0 0 3 3" xmlns="http://www.w3.org/2000/svg">
 <rect x=".15" y=".15" width="2.7" height="2.7" fill="none"/>
 <path id="secondary" d="m2.175 0.285h-0.405l-0.0675 0.27h-0.405l-0.0675-0.27h-0.405a0.135 0.135 0 0 0-0.135 0.135v2.16a0.135 0.135 0 0 0 0.135 0.135h1.35a0.135 0.135 0 0 0 0.135-0.135v-2.16a0.135 0.135 0 0 0-0.135-0.135z" fill="#2ca9bc" stroke-width=".27"/>
 <path id="primary" d="m1.635 2.175h-0.27m0.405-1.89h-0.54l0.0675 0.27h0.405zm0.54 2.295v-2.16a0.135 0.135 0 0 0-0.135-0.135h-1.35a0.135 0.135 0 0 0-0.135 0.135v2.16a0.135 0.135 0 0 0 0.135 0.135h1.35a0.135 0.135 0 0 0 0.135-0.135z" fill="none" stroke="#000000" stroke-linecap="round" stroke-linejoin="round" stroke-width=".27"/>
</svg>
