<?xml version="1.0" encoding="UTF-8" standalone="no"?>
<svg
   width="100"
   height="100"
   viewBox="0 0 3 3"
   version="1.1"
   id="svg6"
   xmlns="http://www.w3.org/2000/svg"
   xmlns:svg="http://www.w3.org/2000/svg">
  <defs
     id="defs10" />
  <rect
     id="rect224"
     width="2.7"
     height="2.7"
     x="0.15000001"
     y="0.15000001"
     fill="none" />
  <path
     d="m 0.57187512,0.48749994 c 0,-0.18615285 0.15134682,-0.33749993 0.33749993,-0.33749993 H 2.0906249 c 0.1861529,0 0.3375,0.15134759 0.3375,0.33749993 V 2.5125001 C 2.4281249,2.6986529 2.2767781,2.85 2.0906249,2.85 H 0.90937505 C 0.7232222,2.85 0.57187512,2.6986532 0.57187512,2.5125001 Z M 1.6687501,2.5125001 c 0,-0.09334 -0.07541,-0.1687499 -0.1687498,-0.1687499 -0.09334,0 -0.1687499,0.07541 -0.1687499,0.1687499 0,0.09334 0.07541,0.1687498 0.1687499,0.1687498 0.09334,0 0.1687498,-0.07541 0.1687498,-0.1687498 z M 2.0906249,0.48749994 H 0.90937505 V 2.1749999 H 2.0906249 Z"
     id="path182" />
</svg>
