<?xml version="1.0" encoding="UTF-8" standalone="no"?>
<svg
   width="100"
   height="100"
   viewBox="0 0 3 3"
   version="1.1"
   id="svg6"
   xmlns="http://www.w3.org/2000/svg"
   xmlns:svg="http://www.w3.org/2000/svg">
  <defs
     id="defs10" />
  <rect
     id="rect224"
     width="2.7"
     height="2.7"
     x="0.15000001"
     y="0.15000001"
     fill="none" />
  <path
     d="m 1.741101,1.4978309 c 0,-0.129096 -0.107937,-0.233766 -0.241101,-0.233766 -0.133146,0 -0.241101,0.10467 -0.241101,0.233766 0,0.129114 0.107955,0.233775 0.241101,0.233775 0.133164,0 0.241101,-0.104661 0.241101,-0.233775 z"
     fill="#53c1de"
     id="path187" />
  <path
     d="M 2.2830361,1.0638329 C 2.3339491,0.86323006 2.3979481,0.49123302 2.172336,0.36511421 1.947777,0.2395453 1.655556,0.48015852 1.501251,0.62458604 1.347396,0.48159762 1.046967,0.2420131 0.82154663,0.36853241 0.59707581,0.49452252 0.66629752,0.86035185 0.71834092,1.0622129 c -0.20939311,0.057663 -0.56834104,0.181863 -0.56834104,0.435618 0,0.253035 0.35857443,0.388161 0.56672824,0.44577 C 0.66449212,2.146578 0.59873631,2.507181 0.82349423,2.632893 1.049757,2.759388 1.34925,2.525505 1.504986,2.379498 1.660281,2.524776 1.949694,2.760189 2.174298,2.634126 2.3996041,2.507667 2.3409241,2.140656 2.2888771,1.9376249 c 0.20178,-0.057735 0.561123,-0.189918 0.561123,-0.439794 0,-0.251316 -0.360873,-0.376524 -0.566964,-0.433998 z m -0.025578,0.766197 C 2.223285,1.7251439 2.17716,1.6136069 2.120739,1.4983889 c 0.053856,-0.1125 0.09819,-0.222597 0.1314091,-0.326808 0.151083,0.042471 0.482517,0.139536 0.482517,0.32625 0,0.188469 -0.318051,0.286452 -0.477207,0.332199 z M 2.1165,2.53734 C 1.94892,2.63139 1.699989,2.406264 1.585302,2.299281 1.661388,2.218596 1.73742,2.124798 1.811625,2.020641 1.942161,2.009418 2.06547,1.9910579 2.177304,1.9659929 2.213934,2.109606 2.2848181,2.442867 2.1165,2.53734 Z M 0.88112574,2.535999 C 0.71352862,2.4423 0.79013213,2.120514 0.82856123,1.9709969 0.93915054,1.9947209 1.061574,2.011785 1.192416,2.022072 1.267107,2.123988 1.345344,2.217669 1.424184,2.299713 1.326777,2.391072 1.049505,2.63013 0.88112574,2.535999 Z M 0.26533399,1.4978309 c 0,-0.189171 0.32945222,-0.285534 0.48397954,-0.327897 0.0337923,0.106551 0.0781119,0.217962 0.13159711,0.330624 -0.0541782,0.114336 -0.0991314,0.227511 -0.13323421,0.335322 C 0.60033201,1.7949839 0.26533399,1.6871189 0.26533399,1.4978309 Z M 0.87933294,0.46531842 C 1.047615,0.37087421 1.308723,0.60088453 1.420431,0.70441154 1.341996,0.78607845 1.264479,0.87905386 1.190427,0.98038486 1.063446,0.99179687 0.94188744,1.0101209 0.83013803,1.0346729 0.78821243,0.87186376 0.71123272,0.55966093 0.87933294,0.46531842 Z M 1.894137,1.1019389 c 0.086148,0.010539 0.168687,0.024561 0.246186,0.041715 C 2.117058,1.2159599 2.08806,1.2915689 2.053905,1.3690769 2.004396,1.2779969 1.951251,1.1887439 1.894137,1.1019389 Z M 1.501287,0.78432885 c 0.053199,0.0558783 0.106479,0.11827801 0.158895,0.18597601 -0.106317,-0.004878 -0.212805,-0.004896 -0.319122,-7.2e-5 0.052461,-0.0670698 0.1062,-0.12937681 0.160227,-0.18590401 z M 0.94708494,1.3689959 C 0.91349604,1.2917579 0.88475814,1.2158159 0.86128974,1.1424749 0.93832614,1.1257619 1.0204799,1.1120999 1.10607,1.1017319 1.048794,1.1883479 0.99573895,1.2775649 0.94708494,1.3689959 Z M 1.108527,1.9019129 c -0.088416,-0.00957 -0.17181366,-0.022536 -0.24882666,-0.03879 0.0238392,-0.074628 0.0532098,-0.152208 0.087516,-0.231111 0.0493236,0.092385 0.10318866,0.182466 0.16131066,0.269901 z M 1.504482,2.219235 C 1.449816,2.16204 1.395285,2.098779 1.342032,2.030739 1.448952,2.034807 1.556079,2.034816 1.66299,2.0301906 1.610412,2.0994726 1.557321,2.1628236 1.504482,2.2192356 Z M 2.055003,1.6279979 c 0.03609,0.079758 0.06651,0.156915 0.090675,0.230283 -0.078291,0.017325 -0.16281,0.031275 -0.251865,0.041634 0.057537,-0.088452 0.111528,-0.179091 0.16119,-0.271917 z M 1.747257,1.9134689 C 1.583709,1.9247999 1.419144,1.9246739 1.255542,1.9143965 1.162581,1.7827355 1.079826,1.6442705 1.0083929,1.5005225 c 0.071091,-0.143451 0.1532431,-0.281646 0.2457631,-0.4131 0.163719,-0.011997 0.328446,-0.012033 0.492165,7.2e-5 0.091728,0.131445 0.173754,0.26928 0.246492,0.411435 -0.071874,0.143379 -0.154458,0.281853 -0.245556,0.4145394 z M 2.114727,0.46199382 C 2.2830541,0.55612843 2.208129,0.89045326 2.171355,1.0358339 2.059341,1.0107689 1.937697,0.99212087 1.810347,0.98052886 1.736151,0.87810346 1.659282,0.78496605 1.582116,0.70435394 1.695255,0.59859673 1.948029,0.36877991 2.114727,0.46199382 Z"
     fill="#53c1de"
     id="path189" />
</svg>
