<?xml version="1.0" encoding="UTF-8"?>
<svg width="100" height="100" version="1.1" viewBox="0 0 3 3" xmlns="http://www.w3.org/2000/svg">
 <path d="m1.5 0.15a1.35 1.35 0 0 0-1.35 1.35 1.35 1.35 0 0 0 1.35 1.35 1.35 1.35 0 0 0 1.35-1.35 1.35 1.35 0 0 0-1.35-1.35zm-0.34412 1.0298c0.12927 0 0.23063 0.039722 0.30404 0.11912 0.0079798 0.0087778 0.011953 0.016538 0.011953 0.02332 0 0.0075808-0.013965 0.035757-0.041894 0.084434-0.02753 0.048677-0.044908 0.075988-0.05209 0.081973-0.0031919 0.0031919-0.0071652 0.0048047-0.011953 0.0048047-0.001995 0-0.011987-0.0080052-0.029941-0.023965-0.021546-0.019152-0.042651-0.03411-0.063398-0.044883-0.03152-0.01596-0.06423-0.023965-0.098145-0.023965-0.058652 0-0.10557 0.02197-0.14068 0.065859-0.032318 0.040697-0.048457 0.090972-0.048457 0.15082 0 0.060646 0.016139 0.11154 0.048457 0.15264 0.035111 0.044687 0.082032 0.067031 0.14068 0.067031 0.034712 0 0.067609-0.0076314 0.09873-0.022793 0.020348-0.0099748 0.04108-0.02394 0.062227-0.041894 0.017556-0.015162 0.02736-0.022734 0.029355-0.022734 0.0039899 0 0.0079632 0.0022322 0.011953 0.0066211 0.0063839 0.0071818 0.023762 0.032074 0.05209 0.074766 0.029126 0.044288 0.043652 0.068678 0.043652 0.073066 0 0.0063839-0.0041602 0.014763-0.012539 0.025137-0.073414 0.087379-0.17098 0.13107-0.29268 0.13107-0.12448 0-0.22541-0.042515-0.30281-0.1275-0.075409-0.082192-0.11314-0.18591-0.11314-0.31119 0-0.12129 0.036929-0.22426 0.11074-0.30885 0.077005-0.088576 0.17495-0.13289 0.29385-0.13289zm0.38121 0.019805c0.02394 0 0.060249 9.934e-4 0.10893 0.0029883 0.048677 0.001995 0.085173 0.0029883 0.10951 0.0029883 0.0099748 0 0.015 0.0041603 0.015 0.012539 0 0.032318-0.0024191 0.08098-0.007207 0.14602-0.0043889 0.064636-0.0065625 0.11311-0.0065625 0.14543 0 0.024737 0.04047 0.11312 0.12146 0.26514 0.021944-0.0395 0.046895-0.087975 0.074824-0.14543 0.037505-0.077404 0.05625-0.12489 0.05625-0.14244 0-0.029126-3.739e-4 -0.072822-0.0011719-0.13107-7.98e-4 -0.058652-0.0012305-0.10253-0.0012305-0.13166 0-0.010773 0.0017997-0.016733 0.0053907-0.01793h0.01916c0.021944 0 0.055087-9.933e-4 0.099375-0.0029882 0.044687-0.002394 0.078016-0.0035743 0.099961-0.0035743 0.01197 0 0.01793 0.0047797 0.01793 0.014356 0 0.030722-6.194e-4 0.077211-0.0018164 0.13945-7.979e-4 0.061844-0.0011718 0.10827-0.0011718 0.13939 0 0.024737-0.03929 0.11573-0.11789 0.27293-0.031121 0.056657-0.076055 0.14206-0.13471 0.25617-0.0039899 0.0087778-0.0067829 0.013744-0.0083789 0.014941-0.001197 7.98e-4 -0.0061636 0.0016044-0.014941 0.0024024-0.020348 0.0015959-0.051878 0.0024023-0.09457 0.0024023-0.053864 0-0.084587-8.064e-4 -0.092168-0.0024023-0.0075808-0.001596-0.013973-0.007369-0.01916-0.017344-0.045485-0.089773-0.091167-0.17977-0.13705-0.26994-0.072217-0.14483-0.10828-0.22682-0.10828-0.24598 0-0.03152 9.933e-4 -0.078815 0.0029883-0.14186 0.0023939-0.06344 0.0035742-0.11092 0.0035742-0.14244 0-0.014763 0.0039733-0.02209 0.011953-0.02209z"/>
</svg>
