<?xml version="1.0" encoding="UTF-8" standalone="no"?>
<svg
   width="100"
   height="100"
   viewBox="0 0 3 3"
   version="1.1"
   id="svg6"
   xmlns="http://www.w3.org/2000/svg"
   xmlns:svg="http://www.w3.org/2000/svg">
  <defs
     id="defs10" />
  <path
     d="m 0.65342961,0.4837545 c -0.006017,0.004814 -0.013036,0.00859 -0.0180506,0.0144404 -0.002476,0.002889 -0.001788,0.00749 -0.00361,0.0108303 -0.005436,0.009966 -0.0129735,0.0187268 -0.0180506,0.0288809 -0.002219,0.004438 -0.002041,0.009733 -0.00361,0.0144404 -0.004805,0.0144141 -0.013246,0.0314039 -0.0144404,0.0469314 -0.003581,0.046552 -0.00133,0.0988023 0.00722,0.14440431 0.001402,0.00748 0.005626,0.0142188 0.00722,0.0216607 0.002033,0.009487 0.001577,0.0193943 0.00361,0.0288809 0.001595,0.007442 0.005818,0.0141802 0.00722,0.0216606 0.006373,0.0339873 0.008175,0.0675055 0.0180506,0.10108305 0.0105335,0.035814 0.0252708,0.0777342 0.0252708,0.11552344 0,0.011024 -8.145e-4,0.042854 -0.00361,0.050542 -0.006769,0.018615 -0.0197085,0.043027 -0.0288809,0.061372 -0.003138,0.00628 -0.008224,0.011536 -0.0108303,0.018051 -0.002279,0.0057 -0.001847,0.012173 -0.00361,0.01805 -0.007374,0.02458 -0.0209719,0.046409 -0.0252707,0.072202 -0.008143,0.04886 -0.00722,0.09868 -0.00722,0.1480144 0,0.037305 0,0.074609 0,0.1119134 0,0.016352 -0.001626,0.034277 0,0.050542 0.001207,0.012067 0.006044,0.024337 0.00722,0.036101 8.382e-4,0.00838 -6.462e-4,0.016872 0,0.025271 0.001764,0.022931 0.004568,0.018492 0.00722,0.039711 0.007604,0.060832 -0.008281,0.1270649 0.0180505,0.1841156 0.0360342,0.078074 0.0919959,0.1001495 0.166065,0.1371841 0.0338875,0.016944 0.002055,0.00795 0.0505415,0.025271 0.0158968,0.00568 0.0346447,0.00876 0.0505415,0.014441 0.0782692,0.027953 -0.0534225,-0.01777 0.0397112,0.018051 0.008177,0.00314 0.0170205,0.00427 0.0252707,0.00722 0.0242389,0.00866 0.0481523,0.019631 0.0722021,0.028881 0.042048,0.016172 0.084895,0.033267 0.1263538,0.050542 0.00994,0.00414 0.018754,0.010795 0.028881,0.01444 0.097144,0.034972 0.201685,0.054821 0.3032491,0.068592 0.025155,0.00341 0.050612,0.00417 0.075812,0.00722 0.088828,0.010767 0.1773659,0.025271 0.267148,0.025271 0.019289,0 0.052536,0.00437 0.072202,0 0.00424,-9.411e-4 0.00674,-0.00576 0.01083,-0.00722 0.012921,-0.00461 0.026864,-0.00601 0.039711,-0.01083 0.016133,-0.00605 0.030684,-0.015926 0.046931,-0.021661 0.00454,-0.0016 0.00965,4.791e-4 0.01444,0 0.019308,-0.00193 0.038622,-0.00403 0.057762,-0.00722 0.016995,-0.00283 0.033546,-0.008 0.050542,-0.01083 0.011929,-0.00199 0.024221,-0.00135 0.036101,-0.00361 0.013478,-0.00257 0.02622,-0.00833 0.039711,-0.01083 0.054562,-0.010104 0.083004,-0.00656 0.1299638,-0.039711 0.026438,-0.018662 0.023868,-0.09028 0.025271,-0.1155235 0.00463,-0.083394 0,-0.1722356 0,-0.2563177 0,-0.053717 -9.303e-4,0.0058 0.00361,-0.057762 0.00179,-0.024993 0,-0.050763 0,-0.075812 0,-0.039626 0.00152,-0.079553 0,-0.1191335 -0.00199,-0.051627 -0.00932,-0.084962 -0.01444,-0.1335741 -0.00644,-0.061185 -0.00722,-0.122601 -0.00722,-0.1841155 0,-0.01848 -0.0033,-0.039633 0,-0.057762 4.347e-4,-0.00239 0.00971,-0.032431 0.01083,-0.039711 0.00919,-0.059703 8.988e-4,-0.00987 0.00361,-0.050542 0.0074,-0.11099344 -2.31e-4,0.016749 0.00722,-0.0577617 0.00217,-0.0216607 -0.00271,-0.008123 0,-0.032491 5.478e-4,-0.004931 0.00241,-0.009627 0.00361,-0.0144404 0.0012,-0.0108303 0.00283,-0.0216217 0.00361,-0.032491 0.00247,-0.034584 -0.00383,-0.0702549 0,-0.10469316 4.203e-4,-0.003782 0.00298,-0.007077 0.00361,-0.0108303 0.00456,-0.0273866 0,-0.079491 0,-0.10830327 0,-0.019826 0.00564,-0.050091 -0.00361,-0.0685921 -0.00152,-0.003044 -0.0057,-0.004176 -0.00722,-0.00722 -0.0034,-0.006807 -0.00413,-0.0147058 -0.00722,-0.0216606 -0.00754,-0.0169581 -0.024464,-0.030878 -0.032491,-0.0469314 -0.00289,-0.005782 -0.010825,-0.009017 -0.01444,-0.0144404 -0.00795,-0.001818 -0.00191,-0.007427 -0.00361,-0.0108303 -0.00152,-0.003044 -0.0057,-0.004176 -0.00722,-0.00722 -0.00108,-0.002153 7.611e-4,-0.004937 0,-0.00722 -0.00224,-0.006735 -0.0045,-0.008993 -0.00722,-0.0144404 -0.00108,-0.002153 0.00108,-0.005068 0,-0.00722 -9.567e-4,-0.001914 -0.00626,-0.005307 -0.00722,-0.00722 -5.382e-4,-0.001076 7.221e-4,-0.002648 0,-0.00361 -0.00472,-0.006296 -0.018125,-0.017373 -0.025271,-0.0216607 -0.00326,-0.001958 -0.00786,-0.001233 -0.01083,-0.00361 -0.00339,-0.002711 -0.00375,-0.008227 -0.00722,-0.0108303 -0.00602,-0.004513 -0.028079,-0.0130365 -0.036101,-0.0180505 -0.0051,-0.003189 -0.00906,-0.00814 -0.014441,-0.0108303 -0.01151,-0.005755 -0.026376,-0.004715 -0.036101,-0.0144404 -0.00181,-0.001805 -0.00181,-0.005415 -0.00361,-0.00722 -8.508e-4,-8.508e-4 -0.00253,5.382e-4 -0.00361,0 -0.00433,-0.002166 -0.0065,-0.008664 -0.01083,-0.0108303 -0.0034,-0.001702 -0.00779,-0.001327 -0.01083,-0.00361 -0.00215,-0.001615 -0.00171,-0.005318 -0.00361,-0.00722 -0.00381,-0.003805 -0.00983,-0.004451 -0.014441,-0.00722 -0.012433,-0.00746 -0.023563,-0.0183053 -0.036101,-0.0252708 -0.00566,-0.003147 -0.012386,-0.004073 -0.01805,-0.00722 -0.021091,-0.0117172 -0.04216,-0.0311529 -0.064982,-0.0397112 -0.01675,-0.006281 -0.033186,-0.0137117 -0.050542,-0.0180505 -0.00467,-0.001167 -0.00977,0.001167 -0.01444,0 -0.011733,-0.002933 -0.024387,-0.0105357 -0.036101,-0.0144404 -0.00457,-0.001522 -0.00972,9.4401e-4 -0.01444,0 -0.00264,-5.2773e-4 -0.00455,-0.003276 -0.00722,-0.00361 -0.010747,-0.001343 -0.021808,0.00178 -0.032491,0 -0.00375,-6.2559e-4 -0.00705,-0.003138 -0.01083,-0.00361 -0.00597,-7.4631e-4 -0.012151,0.00118 -0.018051,0 -0.00635,-0.001271 -0.011724,-0.005814 -0.01805,-0.00722 -0.00842,-0.001872 -0.016847,0.001404 -0.025271,0 -0.016713,-0.002786 -0.033526,-0.005093 -0.050542,-0.00722 -0.011415,0.007068 -0.016629,-0.00578 -0.025271,-0.00722 -0.027235,-0.004539 -0.055941,2.601e-4 -0.083032,-0.00361 -0.050709,-0.007244 -0.1038177,-0.00361 -0.1552346,-0.00361 -0.035288,0 -0.073357,-0.004368 -0.1083033,0 -0.034306,0.004288 -0.067513,0.0132682 -0.101083,0.0216607 -0.0071,0.001775 -0.014622,0.001599 -0.021661,0.00361 -0.015156,0.00433 -0.028602,0.0131441 -0.043321,0.0180505 -0.014892,0.004964 -0.031783,0.005781 -0.046931,0.0108303 -0.00615,0.002049 -0.011627,0.006364 -0.018051,0.00722 -0.011928,0.00159 -0.024103,-9.2295e-4 -0.036101,0 -0.00989,7.6107e-4 -0.019093,0.005589 -0.028881,0.00722 -0.00584,9.7251e-4 -0.012255,-0.001159 -0.018051,0 -0.0121875,0.002438 -0.0243288,0.007887 -0.0361011,0.0108303 -0.002335,5.837e-4 -0.004937,-7.6107e-4 -0.00722,0 -0.052299,0.017433 0.0113834,-0.002082 -0.0216607,0.0144404 -0.004438,0.002219 -0.0101032,0.001201 -0.0144404,0.00361 -0.0164117,0.009118 -0.0362911,0.0271708 -0.0541516,0.0361011 -0.0187801,0.00939 -0.0390706,0.0159252 -0.0577617,0.0252707 -0.0178112,0.008906 -0.0350375,0.0225095 -0.0541516,0.0288809 -0.004707,0.001569 -0.009834,0.001767 -0.0144404,0.00361 -0.005712,0.002285 -0.00591,0.0107503 -0.0108303,0.0144404 -0.00552,0.00414 -0.0138912,0.008201 -0.0180505,0.0144404 -0.001492,0.002239 -0.001707,0.005318 -0.00361,0.00722 -0.00554,0.00554 -0.0150202,0.0100135 -0.0216607,0.0144404 -0.004266,0.002844 -0.005053,0.008663 -0.00722,0.0108303 -8.508e-4,8.508e-4 -0.002759,-8.508e-4 -0.00361,0 -0.0028,0.0028 -0.006127,0.0167068 -0.0108303,0.0180505 -0.007038,0.002011 -0.0144404,0.002407 -0.0216606,0.00361 z"
     id="path3"
     fill="white" />
  <path
     d="M 1.3393496,2.8499862 C 1.0862945,2.8317458 0.83618188,2.7680493 0.68279078,2.6827757 0.59541923,2.6342067 0.52885438,2.5745151 0.5027339,2.5213156 L 0.48719308,2.4896623 V 1.4968082 0.5039527 L 0.499491,0.47898466 C 0.55444658,0.3674105 0.72983502,0.26682384 0.97466709,0.20647185 1.0577762,0.18598373 1.177756,0.16558066 1.2756369,0.15529221 c 0.099948,-0.0105084 0.3648714,-0.00891 0.4645713,0.002819 0.264983,0.0311323 0.4904656,0.10083051 0.6294219,0.19455815 0.053588,0.0361447 0.1085761,0.0939787 0.1272041,0.13378855 l 0.015973,0.0341326 -0.00136,0.98985089 -0.00136,0.9898573 -0.012821,0.026046 c -0.00705,0.014324 -0.02835,0.042509 -0.04733,0.062626 -0.1155516,0.1224844 -0.3633929,0.2130915 -0.6884799,0.2516964 -0.06626,0.00787 -0.3541161,0.014236 -0.422096,0.00933 z m 0.466341,-0.8507438 c -9.733e-4,-0.00254 -0.038803,-0.036238 -0.084065,-0.074893 -0.045263,-0.038655 -0.084245,-0.072099 -0.086629,-0.07432 -0.00238,-0.00222 0.00598,-0.01008 0.018583,-0.017471 0.012604,-0.00739 0.036752,-0.027942 0.053663,-0.045674 0.049454,-0.051856 0.072786,-0.1159116 0.072786,-0.199817 0,-0.082601 -0.025166,-0.1492483 -0.075569,-0.2001228 -0.050798,-0.051281 -0.1091231,-0.073314 -0.1940616,-0.073314 -0.1309257,0 -0.2314779,0.076395 -0.2635715,0.2002503 -0.01104,0.042602 -0.01098,0.1286872 1.161e-4,0.1664625 0.028943,0.098534 0.1077677,0.1700971 0.2058703,0.1869016 0.033198,0.00569 0.037696,0.00814 0.060329,0.032883 0.013451,0.014706 0.041054,0.04406 0.06134,0.065231 l 0.036883,0.038492 h 0.098048 c 0.053927,0 0.097253,-0.00207 0.096279,-0.00462 z M 1.4694414,1.7247106 c -0.023605,-0.012307 -0.032528,-0.021858 -0.045989,-0.049223 -0.010396,-0.021135 -0.012174,-0.033155 -0.01229,-0.08311 -1.159e-4,-0.050758 0.00149,-0.061727 0.012354,-0.083767 0.017759,-0.036067 0.042233,-0.053141 0.080092,-0.055879 0.052699,-0.00383 0.083117,0.022041 0.099061,0.084196 0.019546,0.076206 -0.00195,0.1572261 -0.048844,0.1841143 -0.024603,0.014107 -0.061304,0.015703 -0.084384,0.00367 z M 1.034841,1.8661649 c 0.1027992,-0.019496 0.161155,-0.07928 0.161155,-0.1651 0,-0.076135 -0.037674,-0.120497 -0.1417985,-0.1669804 -0.0596059,-0.02661 -0.0811958,-0.043313 -0.0811958,-0.062828 0,-0.016175 0.0204888,-0.033897 0.0443412,-0.03835 0.023289,-0.00435 0.085056,0.00638 0.1215317,0.021114 l 0.030575,0.012351 v -0.067679 -0.067682 l -0.033184,-0.00736 c -0.020509,-0.00455 -0.063603,-0.00728 -0.1128243,-0.00714 -0.0697205,0 -0.083374,0.0017 -0.10961142,0.012119 -0.0766401,0.030425 -0.11300811,0.082253 -0.11242649,0.1602165 5.4406e-4,0.072984 0.0390483,0.1185119 0.13487262,0.159468 0.0565398,0.024165 0.079201,0.042567 0.079201,0.064311 0,0.046209 -0.0769943,0.051896 -0.15851213,0.011707 -0.0223245,-0.011006 -0.0423816,-0.020908 -0.0445717,-0.022005 -0.00219,-0.0011 -0.003983,0.030519 -0.003983,0.070257 0,0.071926 7.724e-5,0.072273 0.0130996,0.07723 0.0490397,0.018645 0.15742651,0.026952 0.21333083,0.016352 z M 2.2100887,1.7994418 V 1.738384 H 2.1171743 2.0242609 V 1.5286622 1.3189422 H 1.941965 1.8596701 V 1.5897209 1.8605 h 0.175209 0.1752096 z M 1.6366752,0.72946457 c 0.1635366,-0.0113428 0.2861227,-0.0327578 0.3939962,-0.0688253 0.1074665,-0.0359324 0.1709502,-0.0794111 0.1851509,-0.12680601 0.00547,-0.0182636 0.00508,-0.0251921 -0.00257,-0.0452167 C 2.1789643,0.39884366 1.9874387,0.32987156 1.6947743,0.30190657 1.5695849,0.28994197 1.3419114,0.29381957 1.222546,0.30994357 1.0404109,0.33455247 0.89259975,0.38026347 0.82687681,0.43230438 0.69392593,0.5375834 0.83452081,0.65337488 1.1614822,0.7078759 1.3032513,0.7315077 1.4869257,0.7398535 1.6366723,0.7294647 Z"
     fill="#00bcf2"
     id="path152" />
</svg>
