<?xml version="1.0" encoding="UTF-8" standalone="no"?>
<svg
   width="100"
   height="100"
   viewBox="0 0 3 3"
   version="1.1"
   id="svg6"
   xmlns="http://www.w3.org/2000/svg"
   xmlns:svg="http://www.w3.org/2000/svg">
  <defs
     id="defs10" />
  <rect
     id="rect224"
     width="2.7"
     height="2.7"
     x="0.15000001"
     y="0.15000001"
     fill="none" />
  <path
     d="m 0.19394705,0.70607873 c -0.0585961,-0.0585963 -0.0585961,-0.15375669 0,-0.21235298 0.0585961,-0.0585963 0.1537567,-0.0585963 0.21235305,0 L 1.3063392,1.3937649 c 0.058596,0.058596 0.058596,0.1537567 0,0.2123529 L 0.4063001,2.506157 c -0.0585961,0.058596 -0.1537567,0.058596 -0.21235305,0 -0.0585961,-0.058596 -0.0585961,-0.1537566 0,-0.212353 L 0.98757534,1.5001758 Z M 1.3499348,2.2502084 h 1.3500588 c 0.082972,0 0.1500065,0.067033 0.1500065,0.1500065 0,0.082972 -0.067034,0.1500066 -0.1500065,0.1500066 H 1.3499348 c -0.082972,0 -0.1500064,-0.067034 -0.1500064,-0.1500066 0,-0.082972 0.067034,-0.1500065 0.1500064,-0.1500065 z"
     id="path8" />
</svg>
