<?xml version="1.0" encoding="UTF-8" standalone="no"?>
<!-- Uploaded to: SVG Repo, www.svgrepo.com, Generator: SVG Repo Mixer Tools -->

<svg
   fill="#000000"
   width="100"
   height="100"
   viewBox="0 0 4 4"
   version="1.1"
   id="svg1"
   xmlns="http://www.w3.org/2000/svg"
   xmlns:svg="http://www.w3.org/2000/svg">
  <defs
     id="defs1" />
  <path
     d="m 0.73646208,1.0397112 c -0.0291574,0.049978 -0.0310554,0.1090043 -0.0481348,0.1636582 -0.027257,0.087222 -0.0562422,0.1743017 -0.0722022,0.2647413 -0.006598,0.037391 -0.0117358,0.077659 -0.0144404,0.1155235 -0.001715,0.024006 0.001656,0.048192 0,0.072202 -0.002329,0.033767 -0.007579,0.067298 -0.009627,0.101083 -0.001165,0.019219 7.128e-4,0.038521 0,0.057762 -0.001963,0.053009 -0.007664,0.1058357 -0.009627,0.1588448 -0.001538,0.041541 0,0.083567 0,0.1251504 0,0.033029 -0.007109,0.063533 -0.009627,0.09627 -0.003085,0.040108 -0.004813,0.079973 -0.004813,0.120337 0,0.031046 -0.003519,0.065718 0.004813,0.09627 0.002274,0.00834 0.007144,0.015791 0.009627,0.024067 0.002351,0.00784 0.001155,0.01675 0.004813,0.024067 0.010953,0.021906 0.0257735,0.041655 0.0385078,0.062575 0.0273687,0.044963 0.054415,0.089918 0.0818291,0.1347774 0.0142232,0.023275 0.0242123,0.048972 0.0385078,0.072202 0.0259314,0.042138 0.0606141,0.078041 0.0866426,0.1203369 0.0159494,0.025918 0.0236665,0.052993 0.0433213,0.077016 0.0286849,0.035059 0.0630178,0.065789 0.0962696,0.09627 0.0460117,0.042177 0.0917748,0.086013 0.14440432,0.120337 0.032506,0.021199 0.067389,0.038508 0.1010831,0.057762 0.011231,0.00642 0.022931,0.012078 0.033694,0.019254 0.00378,0.00252 0.00557,0.0076 0.00963,0.00963 0.1066996,0.05335 0.2303997,0.058798 0.3465704,0.072202 0.027276,0.00321 0.054553,0.00642 0.081829,0.00963 0.00642,0.0016 0.01269,0.00399 0.019254,0.00481 0.019775,0.00247 0.037748,0.00195 0.057762,0.00481 0.026746,0.00382 0.054918,-0.00269 0.081829,0 0.055568,0.00556 0.1122076,0.015879 0.1684718,0.00963 0.034331,-0.00381 0.067532,-0.016612 0.101083,-0.024067 0.023425,-0.00521 0.044334,-0.00193 0.067389,-0.00481 0.090954,-0.011369 -0.054314,0.00344 0.052948,-0.01444 0.043758,-0.00729 0.086283,-0.00208 0.1299638,-0.00481 0.077104,-0.00482 0.1536781,-0.00481 0.231047,-0.00481 0.00826,0 0.1377501,0.00669 0.1588448,-0.00481 0.021418,-0.011683 0.076055,-0.041803 0.09627,-0.057762 0.042999,-0.033946 0.055813,-0.059377 0.091456,-0.091456 0.038688,-0.034819 0.078348,-0.070291 0.1203369,-0.101083 0.035845,-0.026286 0.077226,-0.049674 0.1155235,-0.072202 0.034725,-0.020426 0.067253,-0.035118 0.091456,-0.067389 0.014716,-0.019621 0.023748,-0.040471 0.033694,-0.062575 0.022566,-0.050148 0.049056,-0.098893 0.057762,-0.1540313 0.023858,-0.1510974 -0.00923,0.020196 0.00963,-0.086643 0.014786,-0.083786 0.00499,-0.015235 0.028881,-0.120337 0.00251,-0.011063 0.00186,-0.022739 0.00481,-0.033694 0.00632,-0.023479 0.029626,-0.089624 0.038508,-0.1251504 0.015501,-0.062002 0.028393,-0.1289236 0.033694,-0.1925392 0.00276,-0.033148 0,-0.067772 0,-0.101083 0,-0.030485 0.00234,-0.06106 0,-0.091456 -0.013987,-0.1818263 -0.00338,0.014553 -0.019254,-0.1203369 -0.00131,-0.011154 7.472e-4,-0.022488 0,-0.033694 -0.00302,-0.045282 -0.014253,-0.090612 -0.024067,-0.1347773 -0.00608,-0.027354 -0.010393,-0.055246 -0.019254,-0.081829 -0.00227,-0.00681 -0.00834,-0.012194 -0.00963,-0.019254 -0.00201,-0.01105 0.00124,-0.022532 0,-0.033694 -0.00119,-0.010697 -0.011037,-0.01867 -0.01444,-0.028881 -0.00101,-0.00304 7.784e-4,-0.00651 0,-0.00963 -0.00861,-0.03443 -0.023498,-0.073733 -0.038508,-0.1058965 -0.014966,-0.032069 -0.035605,-0.061106 -0.052948,-0.091456 -0.0068,-0.011903 -0.00831,-0.026246 -0.01444,-0.038508 -0.00681,-0.013626 -0.02834,-0.049865 -0.038508,-0.062575 C 3.1461922,1.026603 2.9737672,0.95803044 2.8255114,0.89530684 2.6965383,0.84074132 2.8715028,0.9038762 2.6377858,0.82791816 2.627517,0.82458096 2.5098275,0.78515844 2.5078219,0.78459688 2.4920652,0.780185 2.4754872,0.77922376 2.4596871,0.77496992 2.4337157,0.7679776 2.4086595,0.75783268 2.3826715,0.75090252 2.3604743,0.74498328 2.3375697,0.74203384 2.3152828,0.73646208 2.2444499,0.71875388 2.17585,0.69945964 2.1034898,0.68832732 2.0543326,0.68076468 2.0036226,0.67980896 1.954272,0.67388688 1.8547738,0.66194712 1.7564344,0.64981948 1.6558364,0.64981948 c -0.059678,0 -0.1231288,-0.004599 -0.1829122,0 -0.019462,0.001497 -0.03831,0.008006 -0.057762,0.009627 -0.024938,0.002078 -0.047543,0.003462 -0.072202,0.009627 -0.030347,0.007587 -0.062717,0.0235511 -0.091456,0.0336944 -0.031216,0.0110174 -0.067243,0.022382 -0.09627,0.0385078 -0.027921,0.0155115 -0.045635,0.0408211 -0.067389,0.0625752 -0.020837,0.0208372 -0.021487,0.009131 -0.043321,0.0336943 -0.00622,0.006993 -0.0087,0.0166824 -0.014441,0.0240674 -0.013253,0.0170392 -0.028057,0.032871 -0.0433213,0.0481348 -0.011489,0.011489 -0.037127,0.0242591 -0.0481348,0.0336944 -0.002724,0.002335 -0.002276,0.00709 -0.004813,0.009627 -0.008935,0.008935 -0.0829866,0.0677745 -0.0962696,0.0722022 -0.003044,0.00101 -0.006514,-7.784e-4 -0.009627,0 -0.008712,-0.0029 -0.008952,0.0078 -0.0144404,0.00963 -0.008649,0.00288 -0.0200136,-0.00222 -0.0288808,0 -0.0176126,0.0044 -0.0289321,0.00481 -0.0481342,0.00481 z"
     id="path2"
     fill="white" />
  <path
     d="M 0,2.0000001 C 0,0.92050002 0.89387502,0.053375 2,0.053375 c 1.1061251,0 2,0.86712502 2,1.9466251 C 4,3.0795 3.1061251,3.946625 2,3.946625 0.89387502,3.946625 0,3.0795 0,2.0000001 Z M 1.955625,2.663375 c -0.1946249,0 -0.354125,-0.0175 -0.460125,-0.035 C 1.371625,2.6015 1.291625,2.53075 1.239,2.43375 1.194625,2.336125 1.168,2.177125 1.177,1.96425 1.177,1.8497501 1.1855004,1.7436251 1.194,1.6367501 1.212125,1.531375 1.220625,1.44275 1.239,1.37125 L 1.2565,1.300875 v -0.0085 C 1.2565,1.27475 1.239,1.2565 1.220625,1.2565 L 0.96412473,1.2213757 h -0.0085 c -0.0175,0 -0.035625,0.017625 -0.044125,0.026625 0,0.017 -0.009125,0.026125 -0.017625,0.061875 -0.0175,0.0795 -0.026625,0.1505 -0.044125,0.2475 -0.018375,0.1138754 -0.027375,0.229875 -0.026625,0.345 0,0 -0.0085,0.026625 0,0.2390001 0.009,0.212875 0.044125,0.380875 0.11512503,0.513625 0.0710001,0.1236249 0.18549994,0.220625 0.35412494,0.274 0.168,0.053499 0.397875,0.080125 0.690125,0.080125 h 0.035 c 0.2923751,0 0.5221251,-0.026625 0.6901251,-0.080125 0.168625,-0.052625 0.2838749,-0.150375 0.354125,-0.274 0.071,-0.1328751 0.106875,-0.3008751 0.1151244,-0.5136251 0.00913,-0.212375 0,-0.239 0,-0.239 0,-0.1236249 -0.016875,-0.2389999 -0.026625,-0.3443749 -0.017501,-0.1068751 -0.026,-0.1778751 -0.044125,-0.2481251 -0.0085,-0.035125 -0.0085,-0.053375 -0.017625,-0.061875 0,-0.0175 -0.0175,-0.026625 -0.044125,-0.026625 h -0.0085 l -0.257125,0.035125 c -0.017625,0 -0.035125,0.018125 -0.035125,0.035875 v 0.0085 l 0.017501,0.070875 c 0.017625,0.071 0.026124,0.1596251 0.044374,0.2650001 0.017625,0.106875 0.017625,0.213 0.017625,0.3274999 0,0.212875 -0.017625,0.3633751 -0.062,0.4695001 -0.04413,0.09763 -0.1326292,0.1678796 -0.2565043,0.1946297 -0.1066252,0.026625 -0.2654999,0.035 -0.4601249,0.035 z"
     id="path1"
     fill="#3a4abf" />
</svg>
