<?xml version="1.0" encoding="UTF-8"?>
<svg class="iconify iconify--logos" width="31.88" height="32" aria-hidden="true" role="img" version="1.1" viewBox="0 0 256 257" xml:space="preserve" xmlns="http://www.w3.org/2000/svg"><g transform="matrix(1.146 0 0 1.146 -18.967 -21.694)"><path d="m205.04 48.288c-1.8317-2.3681-5.3742-5.2365-11.846-5.4537-11.527-0.38844-16.953 8.9096-18.369 14.538-5.0795 15.531-10.938 39.045-15.481 58.459 0.31153-4.4713 0.70321-10.082 0.70321-10.082 3e-3 -0.0368 4e-3 -0.073 4e-3 -0.10988v-0.13702c0-4.3944-1.4665-8.1838-4.2399-10.957-4.6006-4.5999-11.077-4.733-11.801-4.733h-0.0614c-0.0459 6.46e-4 -0.10793 0.0026-0.10793 0.0026-5.5242 0.17257-9.1584 2.1083-11.502 4.2373-0.80726-2.0353-1.9202-3.8456-3.3635-5.3748-3.0707-3.2536-7.233-4.9929-12.372-5.1674-0.96625-0.06269-6.2428-0.18356-10.662 3.8146-3.3338 3.0164-5.115 7.3759-5.3057 12.951-6.4e-4 6e-3 -5e-3 0.0116-5e-3 0.0181 0 0-0.37228 6.842-0.72841 13.407-7.0446-26.309-18.061-64.331-18.586-66.145-2.5116-8.6549-6.4633-14.303-11.744-16.788-4.4913-2.1128-8.3757-1.2015-9.9036-0.68187-3.898 0.8622-6.9881 2.9905-8.9374 6.1705-1.5925 2.5969-2.3998 5.8182-2.3998 9.5747 0 4.0079 0.9404 7.3558 1.1291 7.986 0.0045 0.01422 0.02456 0.0795 0.02456 0.0795 10.222 32.162 19.618 69.758 21.549 77.591-0.03943 0.4828-1.4672 18.088-1.526 18.826-0.4227 0.64762-12.133 18.592-12.133 18.592-0.16869 0.25853-0.25594 0.55907-0.25594 0.8622 0 0.15899 0.02391 0.31928 0.07239 0.47375l19.31 61.336c0.20682 0.65796 0.81566 1.1046 1.5046 1.1046h90.292c0.68962 0 1.2998-0.4479 1.5053-1.1072l15.059-48.187c0.0453-0.14349 0.0685-0.29279 0.0717-0.44338l0.01-0.56683c0.22557-12.867 3.2904-30.296 3.4197-31.031 3e-3 -0.0174 0.0149-0.0892 0.0149-0.0892 3.728-23.268 14.555-68.103 18.112-82.833 3e-3 -0.01422 1.0348-4.3226 1.0348-4.3226 0.27792-1.2409 0.62822-3.2691 0.62822-5.6075 0.0129-3.2148-0.65925-7.0346-3.1024-10.196z"/><path d="m75.642 143.02 6.312-10.255 17.169 0.18355c-4.8423-20.831-23.11-83.848-23.11-83.848-5.1835-17.859-14.746-13.716-14.746-13.716-10.958 1.9971-6.5143 16.857-6.5143 16.857 10.456 32.895 19.842 70.585 21.86 78.806l-0.97078 11.976zm117.46-95.372c-9.5307-0.86608-12.989 11.329-12.989 11.329-9.8726 30.138-22.776 90.957-22.831 91.293-3.9742 24.301-18.525 22.548-18.525 22.548-8.0648 0.35031-12.972-6.3114-12.972-6.3114l-2.1044 2.1038c15.427 10.518 15.313 31.531 15.076 32.957-0.35031 2.1038-2.7605 2.0598-2.7605 2.0598-2.4541-0.35096-2.8484-2.0598-2.8484-2.0598-2.8038-41.022-39.969-35.763-39.969-35.763-4.5139-2.0152-1.0516-5.6095-1.0516-5.6095 15.777-2.8044 27.347 4.2076 27.347 4.2076 23.842-19.283 2.1038-27.347 2.1038-27.347h-36.817l-21.738 33.308 17.881 56.798h84.501l14.024-44.878c0.23914-13.65 3.5057-31.906 3.5057-31.906 4.3692-27.278 18.502-84.313 19.214-87.5 0.71096-3.2064 2.5207-14.192-9.0486-15.244zm-64.161 114.65c4.2069 6.6623 10.167 5.2598 10.167 5.2598 11.57-0.70191 12.27-16.829 12.27-16.829l3.156-45.229c0-10.168-10.519-10.168-10.519-10.168-11.22 0.35096-11.218 9.817-11.218 9.817l-2.1038 31.555c12.985 12.274-1.7386 25.594-1.7386 25.594zm-0.70449-61.007s0.35095-11.921-11.921-12.271c0 0-9.8164-0.70126-10.167 11.571l-1.7528 32.256 21.212-0.0873 2.6241-31.47z" fill="#ffffff"/></g></svg>
