<?xml version="1.0" encoding="UTF-8" standalone="no"?>
<svg
   width="100"
   height="100"
   version="1.1"
   viewBox="0 0 3 3"
   id="svg14"
   xmlns="http://www.w3.org/2000/svg"
   xmlns:svg="http://www.w3.org/2000/svg">
  <defs
     id="defs18" />
  <rect
     x=".15"
     y=".15"
     width="2.7"
     height="2.7"
     fill="none"
     id="rect2" />
  <path
     id="path4"
     d="M 0.60158203 0.15234375 C 0.35521228 0.15234375 0.15234375 0.35521228 0.15234375 0.60158203 L 0.15234375 1.7988867 C 0.15234375 2.0452565 0.35521228 2.2480664 0.60158203 2.2480664 L 1.3495898 2.2480664 L 1.3495898 2.5488281 L 0.90041016 2.5488281 A 0.1498 0.1498 0 0 0 0.75193359 2.6991797 A 0.1498 0.1498 0 0 0 0.90041016 2.8476562 L 1.5 2.8476562 L 2.0995898 2.8476562 A 0.1498 0.1498 0 0 0 2.2480078 2.6991797 A 0.1498 0.1498 0 0 0 2.0995898 2.5488281 L 1.6504102 2.5488281 L 1.6504102 2.2480664 L 2.3984766 2.2480664 C 2.6448463 2.2480664 2.8476562 2.0452565 2.8476562 1.7988867 L 2.8476562 0.60158203 C 2.8476562 0.35521228 2.6448463 0.15234375 2.3984766 0.15234375 L 0.60158203 0.15234375 z M 0.60158203 0.45117188 L 2.3984766 0.45117188 C 2.4840475 0.45117188 2.5488281 0.51601112 2.5488281 0.60158203 L 2.5488281 1.7988867 C 2.5488281 1.8844576 2.4840475 1.9492383 2.3984766 1.9492383 L 1.505332 1.9492383 A 0.1498 0.1498 0 0 0 1.5 1.9491797 A 0.1498 0.1498 0 0 0 1.4973633 1.9492383 L 0.60158203 1.9492383 C 0.51601112 1.9492383 0.45117187 1.8844576 0.45117188 1.7988867 L 0.45117188 0.60158203 C 0.45117188 0.51601112 0.51601112 0.45117187 0.60158203 0.45117188 z " />
</svg>
