<?xml version="1.0" encoding="UTF-8" standalone="no"?>
<svg
   width="100"
   height="100"
   viewBox="0 0 3 3"
   version="1.1"
   id="svg6"
   xmlns="http://www.w3.org/2000/svg"
   xmlns:svg="http://www.w3.org/2000/svg">
  <defs
     id="defs10" />
  <rect
     id="rect224"
     width="2.7"
     height="2.7"
     x="0.15000001"
     y="0.15000001"
     fill="none" />
  <rect
     id="rect356"
     width="1.123916"
     height="1.976317"
     x="1.6540732"
     y="0.46753246"
     fill="white" />
  <path
     d="M 2.7324539,0.3818623 H 1.7556324 V 0.15168725 L 0.14999992,0.39950872 V 2.5717556 L 1.7556324,2.8483128 V 2.5071484 H 2.7324539 A 0.11205002,0.11205002 0 0 0 2.8500001,2.4014629 V 0.4874516 A 0.11205002,0.11205002 0 0 0 2.7324539,0.3818623 Z m 0.015429,2.0371504 H 1.7523538 L 1.7507145,2.2368591 H 1.9905324 V 2.0247162 H 1.7488823 L 1.7477252,1.8993591 H 1.9905324 V 1.6872161 H 1.745893 L 1.7447358,1.5618589 H 1.9905324 V 1.3497161 H 1.7439645 V 1.2243588 H 1.9905324 V 1.012216 H 1.7439645 V 0.88685879 H 1.9905324 V 0.67471592 H 1.7439645 V 0.48185874 h 1.003918 z"
     id="path11"
     fill="#20744a" />
  <rect
     x="2.1255324"
     y="0.67442667"
     width="0.41686079"
     height="0.2121429"
     id="rect13"
     fill="#20744a" />
  <rect
     x="2.1255324"
     y="1.012023"
     width="0.41686079"
     height="0.2121429"
     id="rect15"
     fill="#20744a" />
  <rect
     x="2.1255324"
     y="1.3496195"
     width="0.41686079"
     height="0.2121429"
     id="rect17"
     fill="#20744a" />
  <rect
     x="2.1255324"
     y="1.687216"
     width="0.41686079"
     height="0.2121429"
     id="rect19"
     fill="#20744a" />
  <rect
     x="2.1255324"
     y="2.0248125"
     width="0.41686079"
     height="0.2121429"
     id="rect21"
     fill="#20744a" />
  <polygon
     points="6.347,10.673 8.493,10.55 9.842,14.259 11.436,10.397 13.582,10.274 10.976,15.54 13.582,20.819 11.313,20.666 9.781,16.642 8.248,20.513 6.163,20.329 8.585,15.666 "
     id="polygon23"
     fill="white"
     transform="matrix(0.0964286,0,0,0.0964286,-0.04285726,-0.04290564)" />
</svg>
