<?xml version="1.0" encoding="UTF-8" standalone="no"?>

<svg
   width="100"
   height="100"
   viewBox="0 0 3 3"
   version="1.1"
   id="svg6"
   xmlns="http://www.w3.org/2000/svg"
   xmlns:svg="http://www.w3.org/2000/svg">
  <defs
     id="defs10" />
  <rect
     id="rect224"
     width="2.7"
     height="2.7"
     x="0.15000001"
     y="0.15000001"
     fill="none" />
  <path
     d="m 0.82500011,0.15000001 c -0.18615126,0 -0.33750005,0.15134768 -0.33750005,0.33750005 V 2.5124999 C 0.48750006,2.6986512 0.63884709,2.85 0.82500011,2.85 H 2.1749999 c 0.1861513,0 0.3375,-0.151347 0.3375,-0.3375001 V 0.99374992 H 1.8375001 c -0.093339,0 -0.1687492,-0.0754099 -0.1687492,-0.16874915 V 0.15000001 Z m 1.01249999,0 V 0.82499989 H 2.5124999 Z M 1.294336,1.6740234 1.1308589,1.8375005 1.294336,2.0009776 c 0.04957,0.04957 0.04957,0.1297273 0,0.1787704 -0.04957,0.049043 -0.1297272,0.04957 -0.1787704,0 L 0.86191404,1.9271484 c -0.0495703,-0.04957 -0.0495703,-0.1297273 0,-0.1787704 L 1.1150391,1.4952538 c 0.04957,-0.04957 0.1297273,-0.04957 0.1787704,0 0.049043,0.04957 0.04957,0.1297273 0,0.1787705 z M 1.8849609,1.4947258 2.138086,1.7478508 c 0.04957,0.04957 0.04957,0.1297273 0,0.1787704 L 1.8849609,2.179746 c -0.04957,0.04957 -0.1297273,0.04957 -0.1787704,0 -0.049043,-0.04957 -0.04957,-0.1297272 0,-0.1787704 L 1.8696676,1.8374985 1.7061905,1.6740214 c -0.04957,-0.04957 -0.04957,-0.1297273 0,-0.1787704 0.04957,-0.049043 0.1297273,-0.04957 0.1787704,0 z"
     id="path314" />
</svg>
