<?xml version="1.0" encoding="UTF-8" standalone="no"?>
<svg
   width="100"
   height="100"
   viewBox="0 0 3 3"
   version="1.1"
   id="svg6"
   xmlns="http://www.w3.org/2000/svg"
   xmlns:svg="http://www.w3.org/2000/svg">
  <defs
     id="defs10" />
  <rect
     id="rect224"
     width="2.7"
     height="2.7"
     x="0.15000001"
     y="0.15000001"
     fill="none" />
  <path
     d="m 2.6518771,0.38037543 c 0,-0.1272317 -0.1031433,-0.23037542 -0.2303754,-0.23037542 H 0.57849825 c -0.12723175,0 -0.23037542,0.10314372 -0.23037542,0.23037542 V 2.6196245 c 0,0.1272317 0.10314371,0.2303754 0.23037542,0.2303754 H 2.4215017 c 0.1272317,0 0.2303754,-0.1031432 0.2303754,-0.2303754 z M 0.63849722,0.3418198 c 0.0824836,0 0.14935699,0.0668734 0.14935699,0.149357 0,0.0824836 -0.0668734,0.14935699 -0.14935699,0.14935699 -0.0824928,0 -0.14935699,-0.0668734 -0.14935699,-0.14935699 0,-0.0824836 0.0668641,-0.149357 0.14935699,-0.149357 z m 0,2.3745256 c -0.0824928,0 -0.14935699,-0.066873 -0.14935699,-0.149357 0,-0.082484 0.0668734,-0.149357 0.14935699,-0.149357 0.0824836,0 0.14935699,0.066873 0.14935699,0.149357 0,0.082484 -0.0668642,0.149357 -0.14935699,0.149357 z M 1.6577978,1.9359348 1.6907323,1.6503614 c 0.00245,-0.021176 -0.00302,-0.040481 -0.015408,-0.05436 -0.019241,-0.0216 -0.051844,-0.025922 -0.080881,-0.00954 L 1.1428627,1.8412781 C 0.93471395,1.7133276 0.79586206,1.4835696 0.79586206,1.2213287 c 0,-0.40165499 0.32560344,-0.72726761 0.72726754,-0.72726761 0.4016642,0 0.7272676,0.32561262 0.7272676,0.72726761 -9.2e-6,0.3556167 -0.2553205,0.651428 -0.5925994,0.7146061 z m 0.709842,0.7804106 c -0.082493,0 -0.1493569,-0.066873 -0.1493569,-0.149357 0,-0.082484 0.066873,-0.149357 0.1493569,-0.149357 0.082484,0 0.1493571,0.066873 0.1493571,0.149357 9.2e-6,0.082484 -0.066864,0.149357 -0.1493571,0.149357 z m 0,-2.07581161 c -0.082493,0 -0.1493569,-0.0668734 -0.1493569,-0.14935699 0,-0.0824836 0.066873,-0.149357 0.1493569,-0.149357 0.082484,0 0.1493571,0.0668734 0.1493571,0.149357 0,0.0824836 -0.066864,0.14935699 -0.1493571,0.14935699 z"
     id="path9" />
  <circle
     cx="1.5231296"
     cy="1.2213196"
     r="0.26218566"
     id="circle11" />
</svg>
