<?xml version="1.0" encoding="UTF-8" standalone="no"?>
<svg
   width="100"
   height="100"
   viewBox="0 0 3 3"
   version="1.1"
   id="svg6"
   xmlns="http://www.w3.org/2000/svg"
   xmlns:svg="http://www.w3.org/2000/svg">
  <defs
     id="defs10" />
  <rect
     id="rect224"
     width="2.7"
     height="2.7"
     x="0.15000001"
     y="0.15000001"
     fill="none" />
  <path
     d="M 2.4564276,0.68061329 2.2821615,2.6328346 1.4988293,2.85 0.71765391,2.6331404 0.54357247,0.68061329 Z"
     fill="#e44d26"
     id="path2" />
  <path
     d="M 1.5,2.684008 2.1329707,2.5085239 2.2818926,0.84026134 H 1.5 Z"
     fill="#f16529"
     id="path4" />
  <path
     d="M 1.1612344,1.3192055 H 1.5 V 1.0797335 H 0.89952423 l 0.005732,0.064247 0.0588568,0.6599126 H 1.5 V 1.5644255 H 1.1831191 Z"
     fill="#ebebeb"
     id="path6" />
  <path
     d="M 1.2152028,1.923631 H 0.9748131 L 1.0083627,2.2996325 1.4988979,2.4358084 1.5,2.4355025 V 2.1863536 L 1.49895,2.1866333 1.2322512,2.1146193 Z"
     fill="#ebebeb"
     id="path8" />
  <path
     d="M 0.72154572,0.15000001 H 0.84324083 V 0.27023438 H 0.95456309 V 0.15000001 H 1.0762635 V 0.51409923 H 0.95456837 V 0.39217735 H 0.84324611 V 0.51409923 H 0.72155098 V 0.15000001 Z"
     fill="#000000"
     id="path10" />
  <path
     d="M 1.2362965,0.27074062 H 1.1291614 V 0.15000001 H 1.4651848 V 0.27074062 H 1.3580021 V 0.51409923 H 1.2363017 V 0.27074062 Z"
     fill="#000000"
     id="path12" />
  <path
     d="M 1.5185151,0.15000001 H 1.6454098 L 1.7234677,0.2779336 1.8014462,0.15000001 H 1.9283877 V 0.51409923 H 1.8071935 V 0.33363165 L 1.723467,0.46308926 H 1.721377 L 1.6375892,0.33363165 V 0.51409923 H 1.5185151 Z"
     fill="#000000"
     id="path14" />
  <path
     d="m 1.9889531,0.15000001 h 0.121732 V 0.39374884 H 2.281824 V 0.51409923 H 1.9889531 Z"
     fill="#000000"
     id="path16" />
  <path
     d="m 1.4991721,1.8038923 h 0.2948801 l -0.027796,0.3105739 -0.2670838,0.072088 v 0.2491382 l 0.4909254,-0.1360599 0.0036,-0.040458 0.056273,-0.6304447 0.00584,-0.064304 H 1.4991721 Z"
     fill="#ffffff"
     id="path18" />
  <path
     d="m 1.4991721,1.3186201 v 5.856e-4 h 0.5784328 l 0.0048,-0.053826 0.010911,-0.1213997 0.00573,-0.064247 H 1.4991721 Z"
     fill="#ffffff"
     id="path20" />
</svg>
