<?xml version="1.0" encoding="UTF-8"?>
<svg width="100" height="100" version="1.1" viewBox="0 0 3 3" xmlns="http://www.w3.org/2000/svg">
 <rect x=".15" y=".15" width="2.7" height="2.7" fill="none"/>
 <g transform="matrix(.89597 0 0 .89597 1.0266 .32754)">
  <path d="m1.1053 2.85-0.78118-0.21686-0.17408-1.9525h1.9129l-0.17427 1.9522z" fill="#264de4"/>
  <path d="m1.7394 2.5085 0.14892-1.6683h-0.78189v1.8437z" fill="#2965f1"/>
  <path d="m0.54908 1.5644 0.021463 0.23947h0.53589v-0.23947z" fill="#ebebeb"/>
  <path d="m0.50595 1.0797 0.021769 0.23947h0.57871v-0.23947z" fill="#ebebeb"/>
  <path d="m1.1064 2.1864-0.00105 2.797e-4 -0.2667-0.072014-0.017049-0.19099h-0.24039l0.03355 0.376 0.49054 0.13618 0.0011-3.059e-4v-0.24915z" fill="#ebebeb"/>
  <path d="m1.6622 1.5644 0.043232-0.48469h-0.59987v0.23947h0.33744l-0.02179 0.24522h-0.31565v0.23947h0.29488l-0.027796 0.31057-0.26708 0.072088v0.24914l0.49093-0.13606 0.0036-0.040458 0.056273-0.63044z" fill="#ffffff"/>
 </g>
 <g transform="translate(-.43065 -.55138)">
  <path d="m2.4564 0.68061-0.17427 1.9522-0.78333 0.21717-0.78118-0.21686-0.17408-1.9525z" fill="#e44d26"/>
  <path d="m1.5 2.684 0.63297-0.17548 0.14892-1.6683h-0.78189z" fill="#f16529"/>
  <path d="m1.1612 1.3192h0.33877v-0.23947h-0.60048l0.005732 0.064247 0.058857 0.65991h0.53589v-0.23947h-0.31688z" fill="#ebebeb"/>
  <path d="m1.2152 1.9236h-0.24039l0.03355 0.376 0.49054 0.13618 0.0011021-3.059e-4v-0.24915l-0.00105 2.797e-4 -0.2667-0.072014z" fill="#ebebeb"/>
  <path d="m1.4992 1.8039h0.29488l-0.027796 0.31057-0.26708 0.072088v0.24914l0.49093-0.13606 0.0036-0.040458 0.056273-0.63044 0.00584-0.064304h-0.55664z" fill="#ffffff"/>
  <path d="m1.4992 1.3186v5.856e-4h0.57843l0.0048-0.053826 0.010911-0.1214 0.00573-0.064247h-0.59987z" fill="#ffffff"/>
 </g>
</svg>
