<?xml version="1.0" encoding="UTF-8" standalone="no"?>
<svg
   width="100"
   height="100"
   viewBox="0 0 3 3"
   version="1.1"
   id="svg6"
   sodipodi:docname="illustrator.svg"
   inkscape:version="1.2.2 (732a01da63, 2022-12-09)"
   xmlns:inkscape="http://www.inkscape.org/namespaces/inkscape"
   xmlns:sodipodi="http://sodipodi.sourceforge.net/DTD/sodipodi-0.dtd"
   xmlns="http://www.w3.org/2000/svg"
   xmlns:svg="http://www.w3.org/2000/svg">
  <sodipodi:namedview
     id="namedview7"
     pagecolor="#ffffff"
     bordercolor="#000000"
     borderopacity="0.25"
     inkscape:showpageshadow="2"
     inkscape:pageopacity="0.0"
     inkscape:pagecheckerboard="0"
     inkscape:deskcolor="#d1d1d1"
     showgrid="false"
     inkscape:zoom="8.24"
     inkscape:cx="49.93932"
     inkscape:cy="50"
     inkscape:window-width="1920"
     inkscape:window-height="1027"
     inkscape:window-x="-8"
     inkscape:window-y="-8"
     inkscape:window-maximized="1"
     inkscape:current-layer="svg6" />
  <defs
     id="defs10" />
  <rect
     id="rect224"
     width="2.7"
     height="2.7"
     x="0.15000001"
     y="0.15000001"
     fill="none" />
  <path
     d="m 0.15000004,1.1271398 c 0,-0.34202924 0,-0.51304529 0.0665643,-0.64368383 C 0.27511608,0.36854301 0.3685434,0.27511534 0.48345635,0.21656384 0.61409488,0.15 0.78511098,0.15 1.1271402,0.15 h 0.7457206 c 0.3420322,0 0.5130483,0 0.6436801,0.0665638 0.1149139,0.0585518 0.2083435,0.15197917 0.266895,0.26689213 0.066564,0.13063854 0.066564,0.30165459 0.066564,0.64368387 v 0.7457207 c 0,0.3420321 0,0.5130482 -0.066564,0.64368 C 2.7248839,2.6314544 2.6314543,2.724884 2.5165404,2.7834354 2.3859085,2.85 2.2148924,2.85 1.8728603,2.85 H 1.1271397 C 0.78511034,2.85 0.61409435,2.85 0.48345583,2.783436 0.36854288,2.724884 0.27511513,2.6314544 0.21656368,2.5165405 0.15000004,2.3859087 0.15000004,2.2148926 0.15000004,1.8728605 Z"
     fill="#330000"
     id="path9" />
  <path
     d="M 1.4584007,1.8467861 H 1.0400069 L 0.9548794,2.1180108 c -0.002365,0.010072 -0.0116392,0.017213 -0.0217348,0.016711 H 0.72122771 c -0.0120847,0 -0.0163111,-0.00681 -0.0126792,-0.020434 L 1.0707962,1.044259 c 0.00363,-0.011147 0.00725,-0.023837 0.010867,-0.03808 0.00474,-0.0247918 0.00717,-0.0499789 0.00725,-0.0752336 -0.00104,-0.007463 0.00551,-0.0140554 0.012671,-0.0130102 h 0.2879922 c 0.00844,0 0.013259,0.003098 0.014484,0.009288 L 1.815225,2.1161498 c 0.00361,0.012391 0,0.018581 -0.010867,0.018573 H 1.5688888 c -0.00826,9.423e-4 -0.016142,-0.00472 -0.018109,-0.012999 z M 1.1052118,1.6127155 H 1.3913924 C 1.3443738,1.4520462 1.2913093,1.2934887 1.2483021,1.1315755 c -0.046401,0.1621929 -0.097026,0.32373 -0.1430903,0.48114 z"
     fill="#ff9a00"
     id="path11" />
  <path
     d="m 2.0597196,1.1148452 c -0.018476,7.611e-4 -0.036893,-0.00249 -0.054068,-0.00953 -0.017164,-0.00704 -0.032689,-0.017724 -0.045553,-0.031339 -0.012825,-0.014214 -0.022796,-0.030876 -0.029324,-0.049053 -0.00652,-0.018167 -0.00949,-0.0374818 -0.00872,-0.056835 -6.557e-4,-0.0191603 0.00263,-0.0382436 0.00965,-0.0560106 0.00703,-0.017766 0.017628,-0.0338127 0.031108,-0.0470928 0.013345,-0.0131423 0.029102,-0.0234389 0.046363,-0.030294 0.017251,-0.006856 0.035659,-0.0101337 0.054154,-0.009646 0.04348,0 0.077587,0.0133139 0.1023392,0.0399397 0.012497,0.0138375 0.022208,0.0300664 0.028582,0.0477582 0.00637,0.0176898 0.00928,0.0365031 0.00854,0.0553452 7.619e-4,0.0194207 -0.00229,0.0388125 -0.00898,0.0569988 -0.00668,0.018187 -0.016875,0.034811 -0.02995,0.048889 -0.013664,0.013818 -0.02998,0.02458 -0.047896,0.031619 -0.017926,0.00703 -0.037077,0.010183 -0.056247,0.00925 z M 1.9347385,2.1161401 V 1.228168 c 0,-0.011147 0.00481,-0.016721 0.014493,-0.016721 h 0.2227886 c 0.00964,0 0.014474,0.00557 0.014483,0.016721 v 0.8879721 c 0,0.0124 -0.00484,0.018592 -0.014483,0.018581 H 1.9510446 c -0.010867,0 -0.016306,-0.00619 -0.016306,-0.018581 z"
     fill="#ff9a00"
     id="path13" />
</svg>
