<?xml version="1.0" encoding="UTF-8" standalone="no"?>
<svg
   width="100"
   height="100"
   viewBox="0 0 3 3"
   version="1.1"
   id="svg6"
   xmlns="http://www.w3.org/2000/svg"
   xmlns:svg="http://www.w3.org/2000/svg">
  <defs
     id="defs10" />
  <rect
     id="rect224"
     width="2.7"
     height="2.7"
     x="0.15000001"
     y="0.15000001"
     fill="none" />
  <path
     d="M 1.9224289,2.1758855 C 1.9731203,2.0074422 2.0781994,1.8638165 2.1822224,1.7207189 v 0 C 2.2096804,1.6832279 2.2371384,1.6457379 2.2635394,1.6077193 2.3680904,1.4572291 2.4293426,1.2750569 2.4293426,1.0780996 2.4293426,0.56432101 2.0132505,0.148229 1.5,0.148229 c -0.51325057,0 -0.92934258,0.41609201 -0.92934258,0.9293426 0,0.1969572 0.0612521,0.3796575 0.16580316,0.5296196 0.0264018,0.038019 0.0538596,0.075509 0.0813175,0.1129996 v 0 C 0.92232959,1.8632885 1.0274087,2.0074422 1.0775721,2.1753575 H 1.9224289 Z M 1.5000005,2.851771 c 0.2333917,0 0.4224284,-0.1890367 0.4224284,-0.4224284 V 2.3448569 H 1.0775721 v 0.084486 c 0,0.2333917 0.1890367,0.4224284 0.4224284,0.4224281 z M 1.0775721,1.0775716 c 0,0.046467 -0.038019,0.084486 -0.0844857,0.084486 -0.0464671,0 -0.0844857,-0.038019 -0.0844857,-0.084486 0,-0.32685405 0.2645458,-0.59139986 0.5913998,-0.59139986 0.046467,0 0.084486,0.0380186 0.084486,0.0844857 0,0.0464671 -0.038019,0.0844857 -0.084486,0.0844857 -0.2333917,0 -0.4224284,0.18903672 -0.4224284,0.42242846 z"
     id="path8" />
</svg>
