<?xml version="1.0" encoding="UTF-8" standalone="no"?>
<svg
   width="100"
   height="100"
   viewBox="0 0 3 3"
   version="1.1"
   id="svg6"
   xmlns="http://www.w3.org/2000/svg"
   xmlns:svg="http://www.w3.org/2000/svg">
  <defs
     id="defs10" />
  <rect
     id="rect224"
     width="2.7"
     height="2.7"
     x="0.15000001"
     y="0.15000001"
     fill="none" />
  <path
     d="m 2.3436915,1.2467138 c 0,0.2420155 -0.078562,0.4655763 -0.2109062,0.6469558 L 2.8003046,2.561716 c 0.065908,0.065908 0.065908,0.1729443 0,0.2388527 -0.065908,0.065908 -0.1729444,0.065908 -0.2388527,0 L 1.8939335,2.1325212 C 1.7125551,2.2653922 1.4889932,2.3434274 1.246978,2.3434274 c -0.60582909,0 -1.09671385,-0.4908848 -1.09671385,-1.0967138 0,-0.60582883 0.49088476,-1.09671359 1.09671385,-1.09671359 0.6058288,0 1.0967135,0.49088476 1.0967135,1.09671379 z M 1.120434,1.7107081 c 0,0.070125 0.056417,0.1265426 0.1265425,0.1265426 0.070125,0 0.1265426,-0.056417 0.1265426,-0.1265426 V 1.3732579 h 0.3374503 c 0.070125,0 0.1265425,-0.056417 0.1265425,-0.1265426 0,-0.070125 -0.056417,-0.1265426 -0.1265425,-0.1265426 H 1.3735217 V 0.78271956 c 0,-0.0701254 -0.056417,-0.12654258 -0.1265426,-0.12654258 -0.070125,0 -0.1265425,0.0564172 -0.1265425,0.12654258 V 1.1201701 H 0.7829837 c -0.0701254,0 -0.12654258,0.056417 -0.12654258,0.1265426 0,0.070125 0.0564172,0.1265426 0.12654258,0.1265426 H 1.120434 Z"
     id="path147" />
</svg>
