<?xml version="1.0" encoding="UTF-8"?>
<svg width="100" height="100" version="1.1" viewBox="0 0 3 3" xmlns="http://www.w3.org/2000/svg">
 <rect x=".15" y=".15" width="2.7" height="2.7" fill="none"/>
 <path id="music-[#1005]" d="m2.85 0.42693v1.2835c0 0.31736-0.24622 0.59345-0.55512 0.58556-0.3539-0.0091799-0.62627-0.36859-0.49326-0.75338 0.073316-0.21213 0.27857-0.35072 0.4977-0.35419 0.10458-0.00148 0.14245 0.025623 0.28113 0.074088v-0.42024c0-0.076424-0.060377-0.13846-0.13477-0.13846h-1.0782c-0.074393 0-0.13477 0.062033-0.13477 0.13846v1.4216c0 0.31888-0.24851 0.59594-0.55875 0.58583-0.29703-0.0097199-0.53557-0.26598-0.52358-0.57614 0.011718-0.29894 0.26819-0.52491 0.55943-0.53183 0.1376-0.0033813 0.16267 0.018279 0.25337 0.074629v-1.3895c0-0.153 0.12075-0.27693 0.26954-0.27693h1.3477c0.14892 0 0.26954 0.12393 0.26954 0.27693" fill="currentColor"/>
</svg>
