<?xml version="1.0" encoding="UTF-8"?>
<svg width="100" height="100" version="1.1" viewBox="0 0 3 3" xmlns="http://www.w3.org/2000/svg">
 <g transform="matrix(.10036 0 0 .10036 -.10583 -.10583)">
  <circle cx="16" cy="16" r="14" fill="#8892bf"/>
  <path d="m14.439 10h1.68l-0.4748 2.5242h1.5096c0.8279 0.0177 1.4446 0.2027 1.8505 0.5551 0.4139 0.3523 0.5357 1.0221 0.3653 2.0088l-0.8157 4.4008h-1.7044l0.7791-4.2026c0.0811-0.4406 0.0568-0.7533-0.073-0.9383s-0.4098-0.2775-0.84-0.2775l-1.3514-0.0132-0.9983 5.4316h-1.68z" fill="#ffffff"/>
  <path d="m6.7409 12.524h3.2627c0.9576 0.0087 1.6516 0.3084 2.0818 0.8986 0.4302 0.5903 0.5722 1.3964 0.4261 2.4185-0.0567 0.4671-0.1826 0.9251-0.3774 1.3745-0.1867 0.4493-0.4463 0.8545-0.7791 1.2158-0.4059 0.4581-0.8401 0.7488-1.3027 0.8723-0.46261 0.1234-0.94154 0.185-1.4366 0.185h-1.4609l-0.46262 2.511h-1.6922zm0.69393 5.4713 0.72802-3.9515h0.24592c0.08936 0 0.18261-0.0045 0.28001-0.0132 0.64937-0.0088 1.1889 0.0573 1.6192 0.1982 0.4382 0.1409 0.5843 0.674 0.4382 1.5991-0.1784 1.1014-0.5276 1.7445-1.0469 1.9295-0.51936 0.1763-1.1687 0.2599-1.9479 0.2511h-0.17044c-0.0487 0-0.09739-0.0045-0.14609-0.0132z" clip-rule="evenodd" fill="#ffffff" fill-rule="evenodd"/>
  <path d="m24.436 12.524h-3.2627l-1.7409 9.4757h1.6922l0.4627-2.511h1.4609c0.495 0 0.9739-0.0616 1.4365-0.185 0.4627-0.1235 0.8968-0.4142 1.3027-0.8723 0.3328-0.3613 0.5924-0.7665 0.7791-1.2158 0.1948-0.4494 0.3207-0.9074 0.3774-1.3745 0.1461-1.0221 0.0042-1.8282-0.4261-2.4185-0.4302-0.5902-1.1241-0.8899-2.0818-0.8986zm-1.8407 1.5198-0.728 3.9515c0.0487 0.0087 0.0974 0.0132 0.1461 0.0132h0.1704c0.7792 0.0088 1.4285-0.0748 1.9479-0.2511 0.5193-0.185 0.8685-0.8281 1.047-1.9295 0.1461-0.9251 0-1.4582-0.4383-1.5991-0.4302-0.1409-0.9698-0.207-1.6192-0.1982-0.0974 0.0087-0.1906 0.0132-0.28 0.0132z" clip-rule="evenodd" fill="#ffffff" fill-rule="evenodd"/>
 </g>
</svg>
