<?xml version="1.0" encoding="UTF-8" standalone="no"?>
<!-- Uploaded to: SVG Repo, www.svgrepo.com, Generator: SVG Repo Mixer Tools -->

<svg
   width="100"
   height="100"
   viewBox="-4 0 32.999999 33"
   version="1.1"
   preserveAspectRatio="xMidYMid"
   id="svg5"
   xmlns="http://www.w3.org/2000/svg"
   xmlns:svg="http://www.w3.org/2000/svg">
  <defs
     id="defs5" />
  <path
     d="m 28.419473,19.767684 c -0.192364,-0.582574 -0.696318,-0.988419 -1.3481,-1.08586 -0.307293,-0.04587 -0.659267,-0.02631 -1.075709,0.05958 -0.725882,0.149756 -1.264441,0.206739 -1.657467,0.217854 1.48348,-2.504799 2.689827,-5.361203 3.384291,-8.049992 C 28.845398,6.5616721 28.245337,4.5810556 27.54413,3.6851137 25.688371,1.3139165 22.980835,0.03999091 19.714289,9.4025335e-4 17.971904,-0.02032642 16.442111,0.32371945 15.644203,0.57106496 14.901203,0.44005631 14.102258,0.3668456 13.263966,0.35328532 11.692826,0.32823955 10.304489,0.67072933 9.1182242,1.3746785 8.4613284,1.1526751 7.4074054,0.83960302 6.1901662,0.63975558 3.327242,0.16973984 1.019919,0.53601569 -0.66778047,1.7282832 -2.711456,3.1718976 -3.6588975,5.6800314 -3.4836512,9.1831046 c 0.055575,1.1122394 0.6777919,4.4961594 1.6573927,7.7055014 0.5630111,1.844569 1.16336853,3.376436 1.78439993,4.553291 0.88067737,1.668805 1.82300597,2.651591 2.88093047,3.004455 0.5930214,0.197625 1.67036,0.335895 2.8035699,-0.607694 0.1436056,0.17384 0.335154,0.346714 0.589539,0.507215 0.3229274,0.203701 0.7178799,0.370128 1.1122396,0.468755 1.4214586,0.355383 2.7528856,0.266465 3.8887636,-0.231561 0.007,0.201996 0.01237,0.395026 0.01697,0.561677 0.0076,0.27039 0.01497,0.535445 0.0249,0.78331 0.06728,1.676289 0.181321,2.979632 0.519217,3.891505 0.01852,0.05024 0.0435,0.126637 0.06988,0.207628 0.168503,0.516179 0.450453,1.380185 1.167517,2.05694 0.742704,0.70091 1.640943,0.915949 2.463601,0.915874 0.412587,0 0.806281,-0.05409 1.151512,-0.128118 1.230873,-0.263722 2.628694,-0.66564 3.639861,-2.105401 0.955963,-1.361141 1.420718,-3.41119 1.504821,-6.641501 0.01089,-0.09129 0.02097,-0.178507 0.03068,-0.261647 0.0065,-0.05609 0.01319,-0.113446 0.01993,-0.170652 l 0.225264,0.01978 0.05802,0.0039 c 1.253623,0.05713 2.786452,-0.20874 3.727817,-0.646003 0.74389,-0.345231 3.127536,-1.603596 2.566304,-3.302706"
     fill="#000000"
     id="path1"
     stroke-width="0.125333" />
  <path
     d="M 26.275984,20.09817 C 22.548611,20.867031 22.292373,19.605035 22.292373,19.605035 26.227893,13.765369 27.873059,6.3527845 26.453305,4.5385964 22.580103,-0.41016605 15.875395,1.9302796 15.763504,1.9910415 l -0.03601,0.00645 C 14.991087,1.8446205 14.166948,1.7535516 13.240699,1.7384353 11.554111,1.710796 10.274775,2.1805894 9.3039928,2.9167721 c 0,0 -11.9605408,-4.9272735 -11.4042728,6.1969754 0.1183376,2.3666025 3.3919975,17.9067615 7.2966922,13.2129035 1.4271643,-1.716378 2.8060895,-3.167624 2.8060895,-3.167624 0.6849054,0.454974 1.5048215,0.687054 2.3643793,0.603692 l 0.06677,-0.05669 c -0.02075,0.213111 -0.01127,0.421554 0.02675,0.668307 -1.005907,1.123873 -0.7103215,1.321201 -2.7211712,1.735123 -2.0347095,0.419332 -0.8394039,1.165889 -0.058984,1.360993 0.9461078,0.236602 3.1349452,0.571755 4.6139052,-1.498596 l -0.05898,0.236231 c 0.394138,0.315665 0.6709,2.053382 0.624513,3.628598 -0.04639,1.57529 -0.07736,2.656778 0.233193,3.501517 0.310552,0.844739 0.620069,2.745402 3.263508,2.178982 2.208845,-0.473351 3.353466,-1.7 3.512707,-3.746121 0.113001,-1.454656 0.368721,-1.239618 0.384874,-2.540145 l 0.205109,-0.615696 c 0.236527,-1.971873 0.03757,-2.608021 1.398413,-2.312139 l 0.330708,0.02905 c 1.001609,0.04557 2.31251,-0.161093 3.081889,-0.5187 1.656727,-0.76886 2.639291,-2.052568 1.005759,-1.715264 h 1.26e-4"
     fill="#336791"
     id="path2"
     stroke-width="0.125333" />
  <path
     d="m 10.004088,10.172116 c -0.3358197,-0.04676 -0.6400744,-0.0035 -0.7939796,0.113002 -0.086623,0.06558 -0.1133738,0.141531 -0.1205604,0.193846 -0.01934,0.138493 0.07773,0.291583 0.1373061,0.370573 0.1686519,0.22356 0.4151081,0.377243 0.6590451,0.411107 0.035345,0.0049 0.070468,0.0073 0.1054439,0.0073 0.4068089,0 0.7765669,-0.316703 0.8091719,-0.550489 0.04075,-0.292768 -0.384283,-0.487948 -0.796427,-0.545301"
     fill="#ffffff"
     id="path3"
     stroke-width="0.125333" />
  <path
     d="m 21.131672,10.181379 h -7.4e-5 c -0.03201,-0.2294878 -0.44045,-0.294918 -0.827993,-0.2410473 -0.38695,0.053945 -0.762266,0.2285983 -0.730921,0.4586043 0.02519,0.178877 0.348047,0.484243 0.730403,0.484169 0.03223,0 0.06484,-0.0022 0.09766,-0.0067 0.2552,-0.03535 0.442451,-0.197402 0.531371,-0.290842 0.135528,-0.142272 0.213852,-0.300994 0.199551,-0.404141"
     fill="#ffffff"
     id="path4"
     stroke-width="0.125333" />
  <path
     d="m 27.516343,20.010805 c -0.142124,-0.429779 -0.599544,-0.568123 -1.359586,-0.411106 -2.256639,0.465718 -3.064773,0.143087 -3.330198,-0.05231 1.754093,-2.672191 3.197041,-5.902132 3.97546,-8.915849 C 27.170814,9.2040009 27.374516,7.8782794 27.391114,6.7977544 27.40949,5.6115631 27.207568,4.740074 26.790904,4.2076663 25.111134,2.0612883 22.645903,0.90999795 19.661678,0.87835728 17.610147,0.8553122 15.876803,1.3803841 15.54076,1.5279913 14.833105,1.3520038 14.061652,1.2439663 13.221876,1.2301836 11.68171,1.2052861 10.350505,1.5740073 9.2482698,2.3255286 8.7695098,2.1473923 7.5321896,1.7226517 6.0191436,1.478937 3.4031203,1.0576791 1.3243955,1.3768274 -0.15908458,2.4277864 -1.9291833,3.6818533 -2.7463571,5.9235237 -2.5880056,9.0904056 c 0.053278,1.0655564 0.6603044,4.3432184 1.61841613,7.4822384 1.26110641,4.13144 2.63188067,6.47033 4.07430947,6.951387 0.1687996,0.05632 0.3635342,0.09574 0.5781274,0.09574 0.5261835,0 1.1712232,-0.237194 1.8424202,-1.044068 1.1148332,-1.341208 2.1557146,-2.465082 2.539404,-2.873446 0.5670125,0.304402 1.1898222,0.474313 1.8270079,0.491356 0.00113,0.01667 0.00282,0.03335 0.0043,0.04994 -0.1278234,0.151608 -0.2326745,0.28447 -0.3220382,0.397916 -0.441413,0.560344 -0.5332972,0.676976 -1.9542374,0.969598 -0.404141,0.08336 -1.4777744,0.304624 -1.4934095,1.057109 -0.017117,0.822138 1.2688868,1.167443 1.4154565,1.204049 0.5106223,0.127823 1.0024975,0.190881 1.4716245,0.190881 1.1409896,-7.4e-5 2.1449696,-0.375019 2.9473976,-1.100532 -0.02475,2.931023 0.09751,5.819215 0.449416,6.699225 0.288175,0.720325 0.992346,2.480939 3.216603,2.480791 0.326262,0 0.685572,-0.03794 1.080747,-0.122635 2.321254,-0.49773 3.329235,-1.523642 3.719223,-3.785469 0.208664,-1.208791 0.56679,-4.095428 0.735145,-5.643745 0.355457,0.110854 0.813098,0.161612 1.307789,0.161538 1.031768,0 2.222256,-0.219187 2.968888,-0.565753 0.838662,-0.389469 2.352226,-1.345358 2.077761,-2.175722 z M 21.988416,9.5478985 c -0.0077,0.4571225 -0.07062,0.8720815 -0.137308,1.3052695 -0.07173,0.465867 -0.145978,0.947516 -0.16465,1.532238 -0.01845,0.569013 0.05261,1.160627 0.121375,1.732678 0.138864,1.155514 0.281358,2.345188 -0.270316,3.519079 -0.08573,-0.152275 -0.168504,-0.318408 -0.244381,-0.502398 -0.06854,-0.166205 -0.217409,-0.433187 -0.423482,-0.802724 -0.802056,-1.438278 -2.680193,-4.806416 -1.718747,-6.180821 0.286322,-0.4091798 1.013094,-0.8296967 2.837509,-0.6033215 z M 19.777052,1.8040134 c 2.67382,0.059058 4.788854,1.0593322 6.286414,2.9728884 1.148548,1.4677709 -0.116189,8.1463962 -3.77754,13.9080342 -0.03616,-0.04594 -0.07299,-0.09233 -0.111076,-0.139901 -0.01519,-0.01904 -0.03068,-0.03838 -0.04631,-0.05795 0.946108,-1.562545 0.76108,-3.10849 0.59643,-4.479192 -0.06765,-0.562492 -0.131527,-1.093787 -0.115299,-1.592777 0.01682,-0.529073 0.08677,-0.982638 0.15435,-1.42131 0.08321,-0.540633 0.167762,-1.0999391 0.14442,-1.7593541 0.01741,-0.069135 0.02445,-0.1508675 0.01534,-0.2478643 C 22.864202,8.354223 22.142321,6.4619337 20.670844,4.748966 19.866046,3.812195 18.692229,2.7637553 17.089595,2.05662 17.778947,1.9137554 18.721646,1.7805237 19.777052,1.8040134 Z M 4.81502,21.985123 C 4.075577,22.874174 3.5648804,22.703819 3.39697,22.647873 2.3027366,22.282857 1.0331829,19.970273 -0.08617032,16.302994 -1.0547302,13.129814 -1.6207794,9.9389979 -1.6655358,9.0442415 -1.8069925,6.2145141 -1.1210497,4.242345 0.3733232,3.1825681 2.8052822,1.4578927 6.8037133,2.4901785 8.4103476,3.0137684 8.3872285,3.0365171 8.36322,3.057858 8.3403232,3.080977 5.7039226,5.7436091 5.7664629,10.292751 5.7729095,10.570774 c -2.256e-4,0.107296 0.00874,0.259201 0.021119,0.468163 0.045349,0.765081 0.1297489,2.189133 -0.095737,3.801844 -0.2096285,1.498597 0.2523103,2.965405 1.2671827,4.024292 0.1050736,0.109594 0.2147415,0.212519 0.3280402,0.309367 C 6.8417266,19.658238 5.8599769,20.728019 4.81502,21.985123 Z M 7.6323727,18.225961 C 6.8143838,17.372552 6.4429209,16.185398 6.6130543,14.968677 6.8512114,13.265046 6.7632548,11.781344 6.7160531,10.984251 6.7094631,10.872731 6.7036041,10.774993 6.7001221,10.697855 7.0852935,10.356403 8.870138,9.3999951 10.142952,9.6916523 c 0.580943,0.1330834 0.93477,0.5285547 1.081933,1.2089397 0.761599,3.522192 0.100849,4.990259 -0.430077,6.169929 -0.109444,0.243048 -0.212814,0.472757 -0.301141,0.71047 l -0.0684,0.183693 c -0.173245,0.464534 -0.334412,0.896387 -0.4342995,1.306531 -0.869488,-0.0027 -1.7154123,-0.374056 -2.3585994,-1.045254 z m 0.1334539,4.750174 C 7.5119603,22.912707 7.2835844,22.80252 7.1496117,22.711155 7.2615025,22.65847 7.4606832,22.58689 7.8060629,22.515753 c 1.6716202,-0.344195 1.9297098,-0.58702 2.4934621,-1.302824 0.129304,-0.164058 0.2758,-0.350122 0.478685,-0.57672 7.4e-5,-1.26e-4 1.26e-4,-2.51e-4 2.51e-4,-2.51e-4 0.302254,-0.33834 0.44045,-0.280987 0.69113,-0.177026 0.203181,0.0841 0.401028,0.338712 0.481279,0.618958 0.03794,0.132341 0.08062,0.383614 -0.05891,0.579016 -1.177671,1.648871 -2.8936755,1.627679 -4.1261056,1.319274 z m 8.7480864,8.140691 c -2.044935,0.438152 -2.768965,-0.605248 -3.246094,-1.798034 -0.307959,-0.77012 -0.459271,-4.242665 -0.351901,-8.077409 0.0014,-0.05105 -0.0059,-0.100332 -0.01993,-0.146644 -0.01222,-0.08944 -0.03105,-0.179914 -0.05713,-0.270983 -0.15976,-0.557973 -0.548859,-1.024728 -1.015688,-1.218203 -0.185472,-0.07684 -0.525961,-0.217853 -0.935067,-0.113224 0.08729,-0.359459 0.238603,-0.765304 0.402585,-1.204864 l 0.06884,-0.184954 c 0.07751,-0.208443 0.174654,-0.424371 0.277503,-0.652894 0.555602,-1.234356 1.316534,-2.924946 0.490691,-6.744278 C 11.818351,9.2748404 10.785398,8.5763005 9.2194444,8.7385051 8.2805986,8.8356502 7.4217807,9.2144489 6.9934091,9.4316358 6.901303,9.4783187 6.8170514,9.5233714 6.7383573,9.5673127 6.8578804,8.1259212 7.3096675,5.4323154 8.9994423,3.7280916 10.063294,2.6551249 11.480232,2.1252364 13.206612,2.1537649 c 3.401557,0.055723 5.582835,1.8013688 6.813858,3.2560242 1.06074,1.2535482 1.635163,2.5162106 1.864427,3.1971888 -1.723934,-0.1752463 -2.896417,0.1650946 -3.490846,1.0147983 -1.293044,1.8483478 0.707432,5.4359698 1.668878,7.1601268 0.176283,0.316036 0.328484,0.589094 0.376353,0.705133 0.313073,0.758784 0.718399,1.26533 1.014354,1.635163 0.0907,0.1133 0.178729,0.223189 0.245641,0.319149 -0.522108,0.150571 -1.459991,0.498322 -1.374554,2.236779 -0.06891,0.872378 -0.559157,4.95647 -0.808133,6.399417 -0.328707,1.906294 -1.03021,2.616394 -3.002677,3.039282 z m 8.535717,-9.768073 c -0.53389,0.247865 -1.427386,0.433782 -2.276201,0.473648 -0.937511,0.04394 -1.414715,-0.105001 -1.526976,-0.196588 -0.05276,-1.083341 0.350566,-1.196566 0.777308,-1.316385 0.06706,-0.0189 0.132491,-0.0372 0.195623,-0.05928 0.03927,0.03194 0.08225,0.06365 0.129305,0.0947 0.753521,0.497359 2.097545,0.551007 3.994873,0.159389 0.007,-0.0015 0.01393,-0.0028 0.02082,-0.0042 -0.255867,0.239269 -0.693797,0.560418 -1.314755,0.84874 z"
     fill="#ffffff"
     id="path5"
     stroke-width="0.125333" />
</svg>
