<?xml version="1.0" encoding="UTF-8" standalone="no"?>
<svg
   width="100"
   height="100"
   viewBox="0 0 3 3"
   version="1.1"
   id="svg6"
   xmlns="http://www.w3.org/2000/svg"
   xmlns:svg="http://www.w3.org/2000/svg">
  <defs
     id="defs10" />
  <rect
     id="rect224"
     width="2.7"
     height="2.7"
     x="0.15000001"
     y="0.15000001"
     fill="none" />
  <path
     d="m 0.14999992,1.1271396 c 0,-0.3420292 0,-0.51304526 0.0665636,-0.64368378 C 0.27511496,0.36854287 0.36854269,0.27511516 0.48345564,0.21656374 0.61409416,0.1500001 0.78511022,0.1500001 1.1271394,0.1500001 h 0.7457207 c 0.3420321,0 0.5130482,0 0.6436799,0.0665636 0.114914,0.0585514 0.2083436,0.15197913 0.2668951,0.26689208 0.066565,0.13063852 0.066565,0.30165458 0.066565,0.64368382 v 0.7457207 c 0,0.3420321 0,0.5130482 -0.066565,0.6436799 C 2.7248836,2.6314542 2.631454,2.7248838 2.51654,2.7834353 2.3859083,2.8499999 2.2148922,2.8499999 1.8728601,2.8499999 H 1.1271395 c -0.34202925,0 -0.51304531,0 -0.64368383,-0.066565 C 0.36854272,2.7248838 0.27511501,2.6314542 0.21656359,2.5165402 0.14999992,2.3859085 0.14999992,2.2148924 0.14999992,1.8728603 Z"
     fill="#00005b"
     id="path430" />
  <path
     d="M 0.7285713,2.058871 V 0.8450533 c 0,-0.008257 0.003385,-0.0129754 0.011283,-0.0129754 0.11660431,0 0.23315365,-0.007077 0.3497937,-0.007077 0.1892506,0 0.3941807,0.06596 0.4660102,0.2677725 0.016924,0.049545 0.025949,0.1002668 0.025949,0.1533503 0,0.1014429 -0.022565,0.1851911 -0.067703,0.2512542 -0.1260702,0.1845249 -0.3445966,0.181661 -0.54048155,0.181661 v 0.378646 c 0.00153,0.011214 -0.00784,0.016518 -0.0169235,0.016518 H 0.74211173 c -0.009026,0 -0.0135405,-0.00471 -0.0135404,-0.015332 z M 0.97455089,1.0597457 V 1.4560864 C 1.052224,1.461894 1.1334941,1.4625194 1.2081201,1.4372151 1.2905086,1.4129924 1.3356277,1.3403046 1.3356277,1.2532007 1.3379172,1.1789796 1.2982425,1.1077575 1.2306936,1.0809792 1.156964,1.0497267 1.0541425,1.047856 0.97455089,1.0597457 Z"
     fill="#9999ff"
     id="path432" />
  <path
     d="m 1.7345622,1.134719 h 0.1980257 c 0.010912,1.059e-4 0.020722,0.00799 0.023606,0.018996 0.014512,0.033683 0.016306,0.074308 0.016354,0.1106714 0.033962,-0.041339 0.074906,-0.075773 0.1208057,-0.1016071 0.049227,-0.029112 0.1050302,-0.043875 0.1615757,-0.042727 0.00939,-0.00141 0.017694,0.00728 0.016354,0.017088 v 0.2297979 c 0,0.00888 -0.00608,0.013297 -0.018168,0.013297 -0.083816,-0.00604 -0.2143028,0.014657 -0.2752072,0.083566 v 0.5975099 c 0,0.011398 -0.00484,0.017097 -0.014531,0.017097 H 1.7509165 c -0.010431,0.00156 -0.019642,-0.00825 -0.018167,-0.018996 V 1.4106204 c 0,-0.086931 0.0018,-0.1764836 -0.0109,-0.262604 -0.00195,-0.00793 0.00529,-0.015294 0.01271,-0.013297 z"
     fill="#9999ff"
     id="path434" />
</svg>
