<?xml version="1.0" encoding="UTF-8" standalone="no"?>
<svg
   width="100"
   height="100"
   viewBox="0 0 3 3"
   version="1.1"
   id="svg6"
   xmlns="http://www.w3.org/2000/svg"
   xmlns:svg="http://www.w3.org/2000/svg">
  <defs
     id="defs10" />
  <rect
     id="rect224"
     width="2.7"
     height="2.7"
     x="0.15000001"
     y="0.15000001"
     fill="none" />
  <path
     d="m 2.5565226,2.7619546 c 0,0.048606 -0.039441,0.088045 -0.088045,0.088045 H 0.53152263 c -0.0486044,0 -0.0880452,-0.039441 -0.0880452,-0.088045 V 0.23804541 c 0,-0.0486053 0.0394408,-0.0880454 0.0880452,-0.0880454 H 1.7641306 c 0.02333,0 0.045741,0.009287 0.062248,0.0257977 l 0.7043468,0.70434662 c 0.016517,0.0165171 0.025797,0.0389132 0.025797,0.0622477 z"
     id="path214"
     fill="#12b347" />
  <path
     d="M 2.5565226,2.7619546 V 0.9424817 c 0,-0.0233971 -0.00932,-0.0458307 -0.025887,-0.0623436 L 1.823731,0.175687 C 1.807214,0.1592388 1.784866,0.15 1.761569,0.15 H 1.4999998 v 2.7 h 0.9684774 c 0.048625,0 0.088045,-0.03942 0.088045,-0.088045 z"
     id="path216"
     fill="#0f993e" />
  <path
     d="M 2.5307407,0.88015497 1.8263781,0.1757978 C 1.809861,0.15928073 1.7874608,0.15000009 1.7641033,0.15000009 h -0.088018 l 5.2e-6,0.79239194 c 0,0.0486211 0.03942,0.0880452 0.088045,0.0880452 h 0.792387 v -0.0880452 c 0,-0.023345 -0.00928,-0.0457306 -0.025782,-0.0622371 z"
     id="path218"
     fill="#12b347" />
  <path
     d="M 2.1163066,1.265216 H 0.8836932 c -0.0486044,0 -0.0880452,0.039441 -0.0880452,0.088045 v 1.0565226 c 0,0.048604 0.0394408,0.088045 0.0880452,0.088045 h 1.2326134 c 0.048604,0 0.088045,-0.039441 0.088045,-0.088045 V 1.3532614 c -5e-6,-0.048604 -0.039441,-0.088045 -0.088045,-0.088045 z M 0.97173861,1.7934774 H 1.3239146 V 1.9695626 H 0.97173861 Z m 0.52826119,0 H 2.0282612 V 1.9695626 H 1.4999998 Z M 2.0282612,1.617392 H 1.4999998 V 1.4413066 H 2.0282612 Z M 1.3239146,1.4413066 V 1.6173928 H 0.97173861 V 1.4413066 Z M 0.97173861,2.1456534 H 1.3239146 V 2.3217396 H 0.97173861 Z M 1.4999998,2.3217396 V 2.1456534 h 0.5282614 v 0.1760862 z"
     id="path220"
     fill="white" />
  <path
     d="M 2.1163066,1.265216 H 1.4999998 V 1.4413022 H 2.0282612 V 1.6173885 H 1.4999998 V 1.7934747 H 2.0282612 V 1.9695588 H 1.4999998 V 2.1456451 H 2.0282612 V 2.3217313 H 1.4999998 v 0.1760862 h 0.6163068 c 0.048621,0 0.088045,-0.03942 0.088045,-0.088045 V 1.3532614 c -5.2e-6,-0.048625 -0.039424,-0.088045 -0.088045,-0.088045 z"
     id="path222"
     fill="#e6f3ff" />
</svg>
