<?xml version="1.0" encoding="UTF-8"?>
<svg width="100" height="100" version="1.1" viewBox="0 0 3 3" xmlns="http://www.w3.org/2000/svg">
 <ellipse cx="1.4782" cy=".49333" rx=".92476" ry=".29308" fill="#ffffff" stroke-width=".03"/>
 <path d="m1.3393 2.85c-0.25306-0.01824-0.50317-0.081937-0.65656-0.16721-0.087372-0.048569-0.15394-0.10826-0.18006-0.16146l-0.015541-0.031653v-1.9857l0.012298-0.024968c0.054956-0.11157 0.23034-0.21216 0.47518-0.27251 0.083109-0.020488 0.20309-0.040891 0.30097-0.05118 0.099948-0.010508 0.36487-0.00891 0.46457 0.002819 0.26498 0.031132 0.49047 0.10083 0.62942 0.19456 0.053588 0.036145 0.10858 0.093979 0.1272 0.13379l0.015973 0.034133-0.00136 0.98985-0.00136 0.98986-0.012821 0.026046c-0.00705 0.014324-0.02835 0.042509-0.04733 0.062626-0.11555 0.12248-0.36339 0.21309-0.68848 0.2517-0.06626 0.00787-0.35412 0.014236-0.4221 0.00933zm0.46634-0.85074c-9.733e-4 -0.00254-0.038803-0.036238-0.084065-0.074893-0.045263-0.038655-0.084245-0.072099-0.086629-0.07432-0.00238-0.00222 0.00598-0.01008 0.018583-0.017471 0.012604-0.00739 0.036752-0.027942 0.053663-0.045674 0.049454-0.051856 0.072786-0.11591 0.072786-0.19982 0-0.082601-0.025166-0.14925-0.075569-0.20012-0.050798-0.051281-0.10912-0.073314-0.19406-0.073314-0.13093 0-0.23148 0.076395-0.26357 0.20025-0.01104 0.042602-0.01098 0.12869 1.161e-4 0.16646 0.028943 0.098534 0.10777 0.1701 0.20587 0.1869 0.033198 0.00569 0.037696 0.00814 0.060329 0.032883 0.013451 0.014706 0.041054 0.04406 0.06134 0.065231l0.036883 0.038492h0.098048c0.053927 0 0.097253-0.00207 0.096279-0.00462zm-0.33625-0.27453c-0.023605-0.012307-0.032528-0.021858-0.045989-0.049223-0.010396-0.021135-0.012174-0.033155-0.01229-0.08311-1.159e-4 -0.050758 0.00149-0.061727 0.012354-0.083767 0.017759-0.036067 0.042233-0.053141 0.080092-0.055879 0.052699-0.00383 0.083117 0.022041 0.099061 0.084196 0.019546 0.076206-0.00195 0.15723-0.048844 0.18411-0.024603 0.014107-0.061304 0.015703-0.084384 0.00367zm-0.4346 0.14145c0.1028-0.019496 0.16116-0.07928 0.16116-0.1651 0-0.076135-0.037674-0.1205-0.1418-0.16698-0.059606-0.02661-0.081196-0.043313-0.081196-0.062828 0-0.016175 0.020489-0.033897 0.044341-0.03835 0.023289-0.00435 0.085056 0.00638 0.12153 0.021114l0.030575 0.012351v-0.13536l-0.033184-0.00736c-0.020509-0.00455-0.063603-0.00728-0.11282-0.00714-0.06972 0-0.083374 0.0017-0.10961 0.012119-0.07664 0.030425-0.11301 0.082253-0.11243 0.16022 5.4406e-4 0.072984 0.039048 0.11851 0.13487 0.15947 0.05654 0.024165 0.079201 0.042567 0.079201 0.064311 0 0.046209-0.076994 0.051896-0.15851 0.011707-0.022324-0.011006-0.042382-0.020908-0.044572-0.022005-0.00219-0.0011-0.003983 0.030519-0.003983 0.070257 0 0.071926 7.724e-5 0.072273 0.0131 0.07723 0.04904 0.018645 0.15743 0.026952 0.21333 0.016352zm1.1752-0.066723v-0.061058h-0.18583v-0.41944h-0.16459v0.54156h0.35042zm-0.57341-1.07c0.16354-0.011343 0.28612-0.032758 0.394-0.068825 0.10747-0.035932 0.17095-0.079411 0.18515-0.12681 0.00547-0.018264 0.00508-0.025192-0.00257-0.045217-0.034288-0.089773-0.22581-0.15874-0.51848-0.18671-0.12519-0.011965-0.35286-0.008087-0.47223 0.008037-0.18214 0.024609-0.32995 0.07032-0.39567 0.12236-0.13295 0.10528 0.007644 0.22107 0.33461 0.27557 0.14177 0.023632 0.32544 0.031978 0.47519 0.021589z" fill="#00bcf2"/>
 <rect x=".62621" y="1.1177" width="1.6784" height="1.0158" fill="#00bcf2" stroke-width=".03"/>
 <path d="m1.0384 0.92353c-0.0206-3.8182e-4 -0.035176 0.002236-0.050574 0.00561v0.002798h0.002824c0.009846 0.020189 0.027198 0.033192 0.03934 0.050585 0.00934 0.019674 0.018701 0.039322 0.028066 0.058966 9.536e-4 -9.371e-4 0.0019-0.00186 0.00282-0.0028 0.017421-0.012252 0.025364-0.031855 0.025287-0.061792-7e-3 -0.007362-0.00803-0.016533-0.014062-0.025287-0.00799-0.011677-0.02356-0.018272-0.033688-0.028086zm1.3595 1.441c0.013267 0.00973 0.022148 0.02481 0.03934 0.03092v-0.00282c-0.0090486-0.011485-0.01135-0.027318-0.019656-0.039348-0.012147-0.012147-0.024381-0.024333-0.036523-0.036523-0.03572-0.047396-0.081018-0.088999-0.12921-0.12358-0.038385-0.027598-0.12441-0.064828-0.14045-0.10953-9.204e-4 -9.536e-4 -0.00187-0.0019-0.00282-0.00285 0.027236-0.00306 0.059148-0.012906 0.084284-0.019655 0.042231-0.011324 0.079986-0.00838 0.12358-0.019657 0.019693-0.00565 0.03934-0.011271 0.058995-0.01684v-0.011272c-0.022051-0.022616-0.037764-0.052553-0.061782-0.073029-0.062928-0.053535-0.13156-0.10707-0.20226-0.15167-0.039178-0.024763-0.087663-0.040829-0.12922-0.061811-0.013975-0.0070478-0.03851-0.010722-0.047759-0.022472-0.021793-0.027837-0.033698-0.063109-0.050538-0.095518-0.035244-0.067902-0.069906-0.14206-0.10115-0.2135-0.021278-0.048704-0.035206-0.09674-0.061773-0.14045-0.12755-0.2097-0.26487-0.33628-0.47753-0.4607-0.045287-0.026452-0.099757-0.036896-0.15731-0.050547-0.030882-0.001862-0.06182-0.003762-0.092702-0.005622-0.018853-0.007876-0.038462-0.030939-0.05617-0.042137-0.070469-0.044504-0.25121-0.14133-0.30337-0.014033-0.032952 0.08033 0.04922 0.15872 0.078632 0.19945 0.020648 0.028552 0.047043 0.06058 0.06182 0.092682 0.009689 0.021107 0.011337 0.042288 0.019693 0.064618 0.02041 0.055024 0.038147 0.11488 0.064551 0.16574 0.013374 0.025719 0.028104 0.052838 0.044981 0.075834 0.010356 0.014118 0.028055 0.020333 0.030834 0.042135-0.017307 0.024277-0.0183 0.061945-0.028028 0.092693-0.043912 0.13844-0.027349 0.31048 0.036523 0.41295 0.019569 0.031435 0.065734 0.098917 0.12917 0.073019 0.055492-0.022605 0.04312-0.092673 0.058994-0.15448 0.00357-0.014043 0.0014-0.024343 0.00842-0.033707v0.0028c0.016877 0.033707 0.033737 0.067415 0.050574 0.10111 0.03744 0.060265 0.10385 0.12329 0.16014 0.16576 0.029143 0.022033 0.052121 0.060141 0.089878 0.073037v-0.00285h-0.00282c-0.0073511-0.011357-0.018782-0.016118-0.028062-0.025253-0.021995-0.021566-0.046442-0.048352-0.064638-0.073047-0.051206-0.069486-0.096426-0.14555-0.13763-0.22471-0.019693-0.037811-0.0368-0.079519-0.0534-0.11798-0.00639-0.014844-0.00632-0.037268-0.019657-0.044953-0.018175 0.02818-0.044934 0.050996-0.058995 0.084273-0.022472 0.053211-0.025364 0.1181-0.033698 0.18539-0.00492 0.00178-0.00275 5.648e-4 -0.00565 0.0028-0.039134-0.00941-0.052872-0.049697-0.0674-0.084255-0.03676-0.087367-0.043586-0.22807-0.011231-0.32866 0.0083685-0.026013 0.046252-0.10799 0.030881-0.13202-0.0073094-0.023999-0.031407-0.03785-0.044894-0.056189-0.016763-0.022663-0.033431-0.052476-0.04502-0.07866-0.030051-0.068121-0.044103-0.14459-0.075787-0.21347-0.01516-0.032906-0.040773-0.066241-0.061811-0.095517-0.023292-0.032419-0.049382-0.056283-0.067415-0.095518-0.00642-0.013928-0.01516-0.036219-0.005636-0.050546 0.003007-0.009663 0.007309-0.013698 0.016877-0.016859 0.016315-0.012553 0.06165 0.004184 0.078632 0.011232 0.045019 0.018701 0.082651 0.036523 0.12081 0.061792 0.0183 0.012147 0.036829 0.035645 0.058948 0.042146h0.025287c0.039579 0.009075 0.083882 0.002837 0.1208 0.014051 0.065306 0.019846 0.12382 0.05072 0.17697 0.084284 0.16189 0.10221 0.29428 0.24775 0.38483 0.42135 0.014568 0.027951 0.020886 0.054623 0.033698 0.084283 0.02588 0.059788 0.058517 0.12129 0.084272 0.17977 0.025689 0.058307 0.050738 0.11718 0.087061 0.16573 0.019092 0.025507 0.092884 0.039197 0.12644 0.053382 0.023504 0.00992 0.062001 0.020286 0.084235 0.03367 0.042556 0.02567 0.083729 0.056198 0.12361 0.084302 0.019933 0.014062 0.081228 0.044858 0.084245 0.070192-0.098774-0.00262-0.17424 0.00655-0.23875 0.033746-0.018339 0.0077-0.047559 0.00792-0.050574 0.030872 0.010081 0.010552 0.011677 0.026366 0.019693 0.03934 0.015359 0.024934 0.041363 0.058317 0.064588 0.075864 0.025364 0.019139 0.051492 0.039617 0.07864 0.05618 0.04835 0.029498 0.10234 0.046327 0.14887 0.075854 0.027531 0.01743 0.054765 0.03934 0.081514 0.058994z" fill="#00758f" fill-rule="evenodd" stroke-width=".075459"/>
 <text x="0.8687681" y="2.6855259" fill="#00bcf2" font-family="sans-serif" font-size=".61967px" font-weight="bold" stroke-width=".051639" xml:space="preserve"><tspan x="0.8687681" y="2.6855259" fill="#ffffff" font-family="sans-serif" font-weight="bold" stroke-width=".051639">SQL</tspan></text>
</svg>
