<?xml version="1.0" encoding="UTF-8"?>
<svg width="100" height="100" version="1.1" viewBox="0 0 3 3" xmlns="http://www.w3.org/2000/svg">
 <g transform="matrix(.64588 0 0 .64588 .91483 1.0246)">
  <rect x=".38908" y=".21907" width="2.7" height="2.7" rx=".43689" ry=".43689" fill="#000000"/>
  <path d="m1.6131 1.4555v0.81932q0 0.20439-0.1013 0.29572-0.10031 0.090456-0.32079 0.090456-0.12713 0-0.19764-0.018265v-0.17221q0.11123 0.00696 0.15692 0.00696 0.12216 0 0.16685-0.040009 0.044693-0.040009 0.044693-0.16265v-0.81932z" fill="#ffffff"/>
  <path d="m1.7561 2.3565 0.23737-0.044357q0.042706 0.17656 0.32774 0.17656 0.1301 0 0.19963-0.045228 0.070515-0.045228 0.070515-0.1122 0-0.048707-0.031781-0.089586-0.031781-0.041749-0.13606-0.065232l-0.25922-0.059143q-0.13308-0.030443-0.19665-0.068712-0.063563-0.039139-0.1023-0.10959-0.03774-0.070451-0.03774-0.15047 0-0.15917 0.13507-0.25484 0.13507-0.096544 0.34562-0.096544 0.1748 0 0.31185 0.066971 0.13805 0.066971 0.17579 0.18961l-0.2324 0.050447q-0.053631-0.13481-0.25028-0.13481-0.11421 0-0.1748 0.041748-0.05959 0.041748-0.05959 0.10611 0 0.10176 0.1887 0.14264l0.23041 0.050446q0.20956 0.046097 0.28107 0.13655 0.071508 0.089585 0.071508 0.19831 0 0.17482-0.15096 0.27571-0.14997 0.10002-0.38932 0.10002-0.20161 0-0.35357-0.07393-0.15096-0.073929-0.20062-0.23049z" fill="#ffffff"/>
 </g>
 <g transform="matrix(.64551 0 0 .64551 -.0068268 -.0068268)">
  <rect x=".15" y=".15" width="2.7" height="2.7" fill="none"/>
  <rect x=".15" y=".15" width="2.7" height="2.7" ry=".47586" fill="#3178c6"/>
  <path d="m1.3787 1.6477h0.3375v-0.21621h-0.94395v0.21621h0.3375v0.96504h0.26895zm0.44297 0.9123c0.042717 0.02214 0.094921 0.038507 0.15293 0.049549 0.058008 0.011102 0.12129 0.016367 0.18457 0.016367 0.063281 0 0.12129-0.00577 0.1793-0.017937 0.058008-0.012107 0.10547-0.032173 0.14766-0.058008 0.042717-0.02797 0.079101-0.063281 0.1002-0.11074 0.021093-0.047476 0.037442-0.1002 0.037442-0.16875 0-0.04798-0.00738-0.089649-0.021619-0.12656-0.014242-0.036938-0.034808-0.068556-0.063281-0.094923-0.026893-0.027969-0.058008-0.052745-0.094921-0.073831-0.036915-0.021076-0.079103-0.043216-0.12656-0.063283-0.034802-0.014237-0.063281-0.027969-0.094922-0.041646-0.02742-0.013732-0.051152-0.027409-0.068555-0.041141-0.019511-0.014237-0.034275-0.028979-0.044824-0.04428-0.010547-0.015807-0.015824-0.033238-0.015824-0.052745 0-0.017937 0.00469-0.034303 0.014243-0.049045 0.00955-0.014741 0.022673-0.026905 0.03955-0.037442 0.016877-0.010535 0.03797-0.018441 0.063281-0.02427 0.024786-0.00577 0.052206-0.00846 0.084374-0.00846 0.022146 0 0.045351 0.00164 0.068555 0.00497 0.024259 0.00333 0.049045 0.00846 0.073829 0.015302 0.024786 0.00683 0.049045 0.015302 0.073829 0.02584 0.023206 0.010535 0.044824 0.022701 0.063281 0.036377v-0.24786c-0.040076-0.015302-0.084374-0.026905-0.13184-0.034304-0.047464-0.0074-0.1002-0.011102-0.16348-0.011102-0.063281 0-0.12129 0.00683-0.1793 0.020067-0.058008 0.013172-0.10547 0.034304-0.14766 0.063283-0.042717 0.028475-0.073829 0.063283-0.1002 0.11074-0.024786 0.04428-0.036915 0.094923-0.036915 0.15821 0 0.0791 0.022673 0.14766 0.068555 0.20039 0.045351 0.058008 0.11602 0.1002 0.20566 0.14238 0.036388 0.014741 0.068555 0.029539 0.1002 0.043776 0.031641 0.014237 0.058008 0.028979 0.0791 0.04428 0.022673 0.015302 0.040604 0.032173 0.052733 0.05011 0.013184 0.017937 0.020038 0.039011 0.020038 0.063283 0 0.016871-0.00412 0.032678-0.012124 0.047476-0.00802 0.014741-0.020566 0.027409-0.037443 0.037947-0.016877 0.010535-0.037442 0.019001-0.063281 0.025336-0.024786 0.00583-0.052733 0.00897-0.089648 0.00897-0.058008 0-0.11601-0.010029-0.16875-0.030044-0.058008-0.020067-0.11074-0.05011-0.14818-0.081421z" fill="#ffffff" stroke-width=".0052734"/>
 </g>
</svg>
