<?xml version="1.0" encoding="UTF-8"?>
<svg width="100" height="100" version="1.1" viewBox="0 0 3 3" xmlns="http://www.w3.org/2000/svg">
 <rect x=".15" y=".15" width="2.7" height="2.7" fill="none"/>
 <rect x=".15" y=".15" width="2.7" height="2.7" ry=".47586" fill="#3178c6"/>
 <path d="m1.3787 1.6477h0.3375v-0.21621h-0.94395v0.21621h0.3375v0.96504h0.26895zm0.44297 0.9123c0.042717 0.02214 0.094921 0.038507 0.15293 0.049549 0.058008 0.011102 0.12129 0.016367 0.18457 0.016367 0.063281 0 0.12129-0.00577 0.1793-0.017937 0.058008-0.012107 0.10547-0.032173 0.14766-0.058008 0.042717-0.02797 0.079101-0.063281 0.1002-0.11074 0.021093-0.047476 0.037442-0.1002 0.037442-0.16875 0-0.04798-0.00738-0.089649-0.021619-0.12656-0.014242-0.036938-0.034808-0.068556-0.063281-0.094923-0.026893-0.027969-0.058008-0.052745-0.094921-0.073831-0.036915-0.021076-0.079103-0.043216-0.12656-0.063283-0.034802-0.014237-0.063281-0.027969-0.094922-0.041646-0.02742-0.013732-0.051152-0.027409-0.068555-0.041141-0.019511-0.014237-0.034275-0.028979-0.044824-0.04428-0.010547-0.015807-0.015824-0.033238-0.015824-0.052745 0-0.017937 0.00469-0.034303 0.014243-0.049045 0.00955-0.014741 0.022673-0.026905 0.03955-0.037442 0.016877-0.010535 0.03797-0.018441 0.063281-0.02427 0.024786-0.00577 0.052206-0.00846 0.084374-0.00846 0.022146 0 0.045351 0.00164 0.068555 0.00497 0.024259 0.00333 0.049045 0.00846 0.073829 0.015302 0.024786 0.00683 0.049045 0.015302 0.073829 0.02584 0.023206 0.010535 0.044824 0.022701 0.063281 0.036377v-0.24786c-0.040076-0.015302-0.084374-0.026905-0.13184-0.034304-0.047464-0.0074013-0.1002-0.011102-0.16348-0.011102-0.063281 0-0.12129 0.00683-0.1793 0.020067-0.058008 0.013172-0.10547 0.034304-0.14766 0.063283-0.042717 0.028475-0.073829 0.063283-0.1002 0.11074-0.024786 0.04428-0.036915 0.094923-0.036915 0.15821 0 0.0791 0.022673 0.14766 0.068555 0.20039 0.045351 0.058008 0.11602 0.1002 0.20566 0.14238 0.036388 0.014741 0.068555 0.029539 0.1002 0.043776 0.031641 0.014237 0.058008 0.028979 0.0791 0.04428 0.022673 0.015302 0.040604 0.032173 0.052733 0.05011 0.013184 0.017937 0.020038 0.039011 0.020038 0.063283 0 0.016871-0.00412 0.032678-0.012124 0.047476-0.00802 0.014741-0.020566 0.027409-0.037443 0.037947-0.016877 0.010535-0.037442 0.019001-0.063281 0.025336-0.024786 0.00583-0.052733 0.00897-0.089648 0.00897-0.058008 0-0.11601-0.010029-0.16875-0.030044-0.058008-0.020067-0.11074-0.05011-0.14818-0.081421z" fill="#ffffff" stroke-width=".0052734"/>
</svg>
