<?xml version="1.0" encoding="UTF-8" standalone="no"?>
<svg
   aria-hidden="true"
   role="img"
   class="iconify iconify--logos"
   width="31.88"
   height="32"
   preserveAspectRatio="xMidYMid meet"
   viewBox="0 0 256 257"
   version="1.1"
   id="svg20"
   sodipodi:docname="vite.svg"
   xml:space="preserve"
   inkscape:version="1.2.2 (732a01da63, 2022-12-09)"
   xmlns:inkscape="http://www.inkscape.org/namespaces/inkscape"
   xmlns:sodipodi="http://sodipodi.sourceforge.net/DTD/sodipodi-0.dtd"
   xmlns="http://www.w3.org/2000/svg"
   xmlns:svg="http://www.w3.org/2000/svg"><sodipodi:namedview
     id="namedview22"
     pagecolor="#ffffff"
     bordercolor="#000000"
     borderopacity="0.25"
     inkscape:showpageshadow="2"
     inkscape:pageopacity="0.0"
     inkscape:pagecheckerboard="0"
     inkscape:deskcolor="#d1d1d1"
     showgrid="false"
     inkscape:zoom="27.34375"
     inkscape:cx="8.9051429"
     inkscape:cy="15.232"
     inkscape:window-width="1920"
     inkscape:window-height="1133"
     inkscape:window-x="-9"
     inkscape:window-y="-9"
     inkscape:window-maximized="1"
     inkscape:current-layer="svg20" /><defs
     id="defs14" /><g
     id="g209"
     transform="matrix(1.1459895,0,0,1.1459895,-18.966965,-21.694021)"><path
       id="path9"
       d="m 205.04172,48.287838 c -1.83169,-2.368136 -5.3742,-5.236528 -11.84586,-5.453693 -11.52721,-0.388442 -16.95311,8.909595 -18.36856,14.537797 -5.07948,15.531199 -10.93777,39.045163 -15.48144,58.459488 0.31153,-4.47128 0.70321,-10.08203 0.70321,-10.08203 0.003,-0.0368 0.004,-0.073 0.004,-0.10988 v -0.13702 c 0,-4.39437 -1.46651,-8.183771 -4.23989,-10.957153 -4.60055,-4.599898 -11.07737,-4.733041 -11.80126,-4.733041 h -0.0614 c -0.0459,6.46e-4 -0.10793,0.0026 -0.10793,0.0026 -5.52415,0.172569 -9.15843,2.108313 -11.50201,4.237309 -0.80726,-2.035278 -1.92023,-3.845636 -3.36348,-5.374842 -3.07069,-3.253602 -7.23302,-4.992863 -12.37196,-5.167371 -0.96625,-0.06269 -6.24285,-0.183557 -10.66178,3.814612 -3.33375,3.016401 -5.11502,7.375866 -5.30569,12.951066 -6.4e-4,0.006 -0.005,0.0116 -0.005,0.0181 0,0 -0.37228,6.84201 -0.72841,13.40738 C 92.859663,87.392463 81.843693,49.370433 81.318231,47.556198 78.80661,38.901255 74.854977,33.253663 69.574499,30.768542 c -4.491316,-2.112837 -8.375731,-1.201519 -9.903644,-0.681873 -3.897989,0.862198 -6.98807,2.990548 -8.937388,6.170469 -1.592546,2.596935 -2.399806,5.818221 -2.399806,9.574664 0,4.007864 0.940403,7.355829 1.12913,7.985996 0.0045,0.01422 0.02456,0.0795 0.02456,0.0795 10.221636,32.161798 19.617914,69.757902 21.549135,77.591362 -0.03943,0.4828 -1.467159,18.08806 -1.525975,18.82552 -0.422696,0.64762 -12.133466,18.59155 -12.133466,18.59155 -0.168691,0.25853 -0.255945,0.55907 -0.255945,0.8622 0,0.15899 0.02391,0.31928 0.07239,0.47375 l 19.310264,61.33628 c 0.206824,0.65796 0.815663,1.10457 1.504646,1.10457 h 90.29166 c 0.68962,0 1.29976,-0.4479 1.50529,-1.10715 l 15.05873,-48.18679 c 0.0453,-0.14349 0.0685,-0.29279 0.0717,-0.44338 l 0.01,-0.56683 c 0.22557,-12.86704 3.29044,-30.29585 3.41971,-31.03073 0.003,-0.0174 0.0149,-0.0892 0.0149,-0.0892 3.72801,-23.26836 14.5546,-68.103304 18.11198,-82.833059 0.003,-0.01422 1.03477,-4.322625 1.03477,-4.322625 0.27792,-1.240944 0.62822,-3.269113 0.62822,-5.607519 0.0129,-3.214822 -0.65925,-7.034605 -3.10236,-10.196429 z"
       style="display:inline" /><path
       id="path11"
       d="m 75.642201,143.01975 6.312014,-10.25524 17.168988,0.18355 C 94.280933,112.11699 76.013192,49.100269 76.013192,49.100269 70.829663,31.241653 61.267278,35.383952 61.267278,35.383952 c -10.9578,1.997145 -6.514313,16.857459 -6.514313,16.857459 10.455606,32.895377 19.842189,70.585199 21.860017,78.806459 l -0.970781,11.97641 z M 193.09891,47.647976 c -9.53071,-0.866076 -12.98855,11.329438 -12.98855,11.329438 -9.87262,30.137507 -22.77586,90.957376 -22.8308,91.293466 -3.97425,24.30054 -18.52498,22.5477 -18.52498,22.5477 -8.06485,0.35031 -12.97239,-6.31136 -12.97239,-6.31136 l -2.10444,2.10378 c 15.42714,10.51766 15.31274,31.53099 15.07554,32.95743 -0.35031,2.10379 -2.76046,2.05984 -2.76046,2.05984 -2.45409,-0.35096 -2.84835,-2.05984 -2.84835,-2.05984 -2.80376,-41.02163 -39.96941,-35.76312 -39.96941,-35.76312 -4.513936,-2.01525 -1.051571,-5.60946 -1.051571,-5.60946 15.777451,-2.80441 27.347321,4.20758 27.347321,4.20758 23.84165,-19.28312 2.10379,-27.34732 2.10379,-27.34732 H 84.757328 l -21.737861,33.30838 17.881238,56.79842 h 84.500585 l 14.02396,-44.87825 c 0.23914,-13.65039 3.50567,-31.90585 3.50567,-31.90585 4.36916,-27.27816 18.50171,-84.313145 19.21396,-87.49953 0.71096,-3.20642 2.52067,-14.192013 -9.04855,-15.24423 z M 128.93819,162.29964 c 4.20694,6.66232 10.16735,5.25979 10.16735,5.25979 11.56987,-0.70191 12.27049,-16.82902 12.27049,-16.82902 l 3.156,-45.2292 c 0,-10.167993 -10.51894,-10.167993 -10.51894,-10.167993 -11.21957,0.350955 -11.21827,9.817033 -11.21827,9.817033 l -2.10379,31.5549 c 12.98467,12.27372 -1.73862,25.59449 -1.73862,25.59449 z m -0.70449,-61.00666 c 0,0 0.35095,-11.920822 -11.92083,-12.27113 0,0 -9.81639,-0.701263 -10.16734,11.57052 l -1.75284,32.25551 21.2124,-0.0873 2.62408,-31.46959 z"
       fill="#ffffff"
       style="display:inline" /></g></svg>
