<?xml version="1.0" encoding="UTF-8" standalone="no"?>
<svg
   width="100"
   height="100"
   viewBox="0 0 3 3"
   version="1.1"
   id="svg6"
   xmlns="http://www.w3.org/2000/svg"
   xmlns:svg="http://www.w3.org/2000/svg">
  <defs
     id="defs10" />
  <rect
     id="rect224"
     width="2.7"
     height="2.7"
     x="0.15000001"
     y="0.15000001"
     fill="none" />
  <g
     id="g2719"
     transform="translate(0.40675589)">
    <path
       d="m 0.60017761,0.15000001 h 0.2900391 V 0.27128909 H 0.72146669 v 0.12128908 h 0.16875002 v 0.12128908 h -0.2900391 z"
       fill="#000000"
       id="path301" />
    <path
       d="M 0.94822454,0.15000001 H 1.2382637 V 0.25546877 H 1.0695136 v 0.0210938 H 1.2382637 V 0.51914069 H 0.94822454 V 0.40839849 H 1.1169745 V 0.38730473 H 0.94822454 Z"
       fill="#000000"
       id="path303" />
    <path
       d="M 1.2962714,0.15000001 H 1.5863106 V 0.25546877 H 1.4175605 v 0.0210938 H 1.5863106 V 0.51914069 H 1.2962714 V 0.40839849 H 1.4650215 V 0.38730473 H 1.2962714 Z"
       fill="#000000"
       id="path305" />
  </g>
  <g
     id="g2714"
     transform="matrix(0.89597316,0,0,0.89597316,0.01560402,0.07080206)">
    <path
       d="M 1.105257,2.8500004 0.32408147,2.6331408 0.15000001,0.68061336 H 2.0628553 L 1.8885893,2.6328349 Z"
       fill="#264de4"
       id="path291" />
    <path
       d="M 1.7393984,2.5085242 1.8883204,0.84026144 H 1.1064277 V 2.6840084 Z"
       fill="#2965f1"
       id="path293" />
    <path
       d="m 0.54907799,1.5644258 0.0214629,0.2394668 H 1.1064277 V 1.5644258 Z"
       fill="#ebebeb"
       id="path295" />
    <path
       d="m 0.50595181,1.0797336 0.0217688,0.239472 H 1.1064277 v -0.239472 z"
       fill="#ebebeb"
       id="path297" />
    <path
       d="M 1.1064277,2.186354 1.1053777,2.1866337 0.8386789,2.1146197 0.8216299,1.9236316 H 0.58124069 l 0.0335496,0.3760014 0.49053521,0.136176 0.0011,-3.059e-4 v -0.249149 z"
       fill="#ebebeb"
       id="path299" />
    <path
       d="M 1.6622428,1.5644258 1.7054745,1.0797336 H 1.1055997 v 0.239472 h 0.3374368 l -0.02179,0.2452202 h -0.315647 v 0.2394668 h 0.2948802 l -0.027796,0.3105739 -0.2670839,0.072088 v 0.2491383 l 0.4909255,-0.13606 0.0036,-0.040458 0.056273,-0.6304448 z"
       fill="#ffffff"
       id="path307" />
  </g>
  <g
     id="g2723"
     transform="matrix(0.79162558,0,0,0.79162558,0.5938671,0.59295242)">
    <path
       d="M 1.7675016,0.68061336 A 1.0824985,1.0824985 0 1 1 0.68500299,1.763112 1.0824985,1.0824985 0 0 1 1.7675016,0.68061336 Z"
       id="path2300"
       fill="#cc6699" />
    <path
       d="M 2.4465376,1.1439228 C 2.3975158,0.95170194 2.07872,0.88876238 1.7770121,0.99562046 A 1.5158847,1.5158847 0 0 0 1.2632892,1.290292 C 1.0971256,1.4457079 1.0706044,1.5810202 1.0815067,1.6375422 1.1201674,1.8370311 1.3933436,1.9673949 1.5056915,2.0641239 v 5.413e-4 C 1.4725981,2.08098 1.2301183,2.2038436 1.1732098,2.3291041 c -0.059847,0.1323741 0.00951,0.2273247 0.055517,0.2400827 A 0.34021385,0.34021385 0 0 0 1.5958485,2.4203433 0.37299809,0.37299809 0 0 0 1.6323445,2.0887894 0.43601497,0.43601497 0 0 1 1.798044,2.0792794 c 0.1899013,0.022191 0.2271702,0.1407247 0.2200565,0.1903651 a 0.12526055,0.12526055 0 0 1 -0.060233,0.085054 c -0.013299,0.00828 -0.017397,0.011057 -0.016238,0.017242 0.00162,0.00889 0.00773,0.00859 0.019099,0.00666 A 0.14807034,0.14807034 0 0 0 2.0640288,2.2466022 C 2.0685909,2.1306202 1.9571708,2.0002565 1.7598467,2.0035813 a 0.52083647,0.52083647 0 0 0 -0.1692564,0.023197 c -0.00271,-0.00309 -0.00549,-0.00619 -0.00835,-0.00928 C 1.4602266,1.8873674 1.2347576,1.7952777 1.2442681,1.6202995 1.2477476,1.556664 1.2698615,1.389186 1.6772676,1.1859856 2.0112957,1.0195127 2.2786729,1.0653643 2.324911,1.1668872 2.3909435,1.311942 2.1820212,1.5814068 1.8351578,1.6202995 A 0.26057288,0.26057288 0 0 1 1.6161064,1.5647827 c -0.018247,-0.020104 -0.020954,-0.020953 -0.027759,-0.017243 -0.011057,0.00611 -0.00402,0.023893 0,0.034408 a 0.20559741,0.20559741 0 0 0 0.1253383,0.098507 0.66434487,0.66434487 0 0 0 0.4065556,-0.040207 C 2.3306328,1.5591384 2.4947086,1.3329734 2.4465376,1.1439228 Z m -0.894144,0.9797385 a 0.27711964,0.27711964 0 0 1 -0.00224,0.1617562 q -0.00271,0.00819 -0.00595,0.016237 -0.00325,0.00804 -0.00703,0.015465 a 0.30240372,0.30240372 0 0 1 -0.050028,0.072914 C 1.4242721,2.458617 1.3363578,2.484597 1.2987023,2.4627149 1.2580313,2.4391323 1.2783668,2.3424034 1.3512809,2.265314 A 0.73285155,0.73285155 0 0 1 1.5425738,2.1290737 v 0 z"
       id="path2302"
       fill="#ffffff" />
  </g>
</svg>
