<?xml version="1.0" encoding="UTF-8"?>
<svg width="100" height="100" version="1.1" viewBox="0 0 3 3" xmlns="http://www.w3.org/2000/svg">
 <rect x=".15" y=".15" width="2.7" height="2.7" fill="none"/>
 <path d="m0.34536 1.7897c-9.002e-5 0.026018-0.011074 0.049426-0.02863 0.065991h-9.003e-5c-0.018006 0.016926-0.042314 0.02728-0.069053 0.02728-0.026739 0-0.051137-0.010443-0.069233-0.02737l9.005e-5 9.01e-5c-0.017556-0.016565-0.028539-0.039973-0.028539-0.065902 0-0.025928 0.010984-0.049426 0.02863-0.065901h9.004e-5c0.018006-0.016925 0.042314-0.02728 0.069053-0.02728 0.026739 0 0.051047 0.010361 0.069143 0.02737l-9.003e-5 -9.01e-5c0.017556 0.016565 0.02854 0.039973 0.02863 0.065991zm0.97917 0.077966h-0.17529l-0.46149-0.72816c-0.010623-0.016385-0.020437-0.035291-0.02827-0.055189l-8.1027e-4 -0.00216h-0.004051c0.003692 0.032861 0.005763 0.070853 0.005763 0.10939 0 0.00936-9.003e-5 0.018726-3.6012e-4 0.028089v-0.00135 0.64939h-0.15494v-0.9906h0.18663l0.4461 0.71106c0.018816 0.02935 0.03097 0.049696 0.036371 0.06077h0.0027c-0.00449-0.033672-0.00703-0.072565-0.00703-0.11209 0-0.00747 9e-5 -0.014856 2.7e-4 -0.022328v0.00108-0.63858h0.1544zm0.75463 0h-0.54243v-0.9906h0.52091v0.13955h-0.36057v0.28062h0.33221v0.13883h-0.33221v0.29296h0.38209zm0.77093-0.85105h-0.27765v0.85114h-0.16034v-0.85114h-0.27702v-0.13955h0.71493z" fill="white"/>
 <path d="m2.8343 2.4906c0.00967-0.017362 0.015673-0.03692 0.015673-0.054488v-0.60973c0-0.017566-6e-3 -0.037122-0.015673-0.054483l-0.60036 0.35935z" fill="#7f3a86"/>
 <path d="m2.2873 2.8368 0.50934-0.30486c0.014672-0.00878 0.028009-0.023948 0.037675-0.04131l-0.60036-0.35935-0.60036 0.35935c0.00967 0.017362 0.023007 0.032532 0.037675 0.04131l0.50933 0.30486c0.029338 0.017568 0.077358 0.017568 0.1067 2e-7z" fill="#662579"/>
 <path d="m2.8343 1.7719c-0.00967-0.017365-0.023009-0.03253-0.037675-0.041313l-0.50934-0.30486c-0.029338-0.017565-0.077358-0.017565-0.1067 0l-0.50934 0.30486c-0.029344 0.017561-0.053349 0.060673-0.053349 0.095798v0.60973c0 0.017562 6e-3 0.037126 0.015675 0.054488l0.60036-0.35935z" fill="#9a5196"/>
 <path d="m2.2359 2.542c-0.22754 0-0.41267-0.18424-0.41267-0.41069s0.18512-0.41069 0.41267-0.41069c0.14412 0 0.2787 0.075756 0.35322 0.19825l-0.17672 0.10599c-0.037337-0.061116-0.10455-0.098899-0.17649-0.098899-0.11378 0-0.20633 0.092118-0.20633 0.20534 0 0.11323 0.092554 0.20534 0.20633 0.20534 0.071753 0 0.13879-0.037573 0.1762-0.098401l0.1771 0.10538c-0.074504 0.12256-0.20913 0.19837-0.3533 0.19837z" fill="#ffffff"/>
 <path d="m2.696 1.9773v0.051203h-0.10268v-0.051203h-0.051326v0.051203h-0.051341v0.05147h0.051341v0.10241h-0.051341v0.051603h0.051341v0.051335h0.051326l5.1e-6 -0.051336h0.10268v0.051336h0.051325v-0.051336h0.051342v-0.051335h-0.051342v-0.10267h0.051341v-0.05147h-0.051341v-0.051203zm0 0.20534v-0.10267h-0.10268v0.10241z" fill="#ffffff" fill-rule="evenodd"/>
</svg>
