<?xml version="1.0" encoding="UTF-8" standalone="no"?>

<svg
   width="100"
   height="100"
   viewBox="0 0 3 3"
   version="1.1"
   id="svg6"
   xmlns="http://www.w3.org/2000/svg"
   xmlns:svg="http://www.w3.org/2000/svg">
  <defs
     id="defs10" />
  <rect
     id="rect224"
     width="2.7"
     height="2.7"
     x="0.15000001"
     y="0.15000001"
     fill="none" />
  <path
     d="m 1.5000002,0.15000001 c 0.7456017,0 1.3499939,0.61964709 1.3499939,1.38414869 0,0.6114122 -0.3863683,1.1300799 -0.9224509,1.313274 -0.068445,0.013643 -0.092745,-0.029564 -0.092745,-0.06642 0,-0.045629 0.00162,-0.194669 0.00162,-0.3798881 0,-0.1290598 -0.043199,-0.2132992 -0.091664,-0.2562289 0.3006437,-0.03429 0.6165423,-0.1513339 0.6165423,-0.6829619 0,-0.1511999 -0.05238,-0.2745887 -0.1390498,-0.3715182 0.014045,-0.034966 0.060345,-0.17577009 -0.013222,-0.36638844 0,0 -0.1131287,-0.0371241 -0.3708434,0.1418835 -0.1078649,-0.0306433 -0.2234246,-0.0460348 -0.3381739,-0.0465744 -0.1147494,0 -0.230174,0.0159196 -0.3379035,0.0465744 C 0.90411285,0.68689079 0.7907134,0.72401485 0.7907134,0.72401485 0.71740859,0.91463301 0.76371321,1.0554383 0.77762565,1.0904033 0.69136128,1.187333 0.63857592,1.3107222 0.63857592,1.4619215 c 0,0.5302775 0.31522352,0.649077 0.61505728,0.6840418 -0.038611,0.03456 -0.073575,0.095579 -0.085725,0.1850846 -0.07695,0.035369 -0.27242887,0.096524 -0.39284826,-0.1150192 0,0 -0.0714144,-0.1329746 -0.20695412,-0.1426948 0,0 -0.13162434,-0.00176 -0.009184,0.084104 0,0 0.0884246,0.042526 0.14984904,0.2024992 0,0 0.079244,0.2470489 0.45481284,0.1633501 6.751e-4,0.1156945 0.00189,0.2247739 0.00189,0.2577137 0,0.036585 -0.02484,0.07938 -0.092204,0.066554 C 0.53677914,2.6646335 0.15000589,2.145696 0.15000589,1.5341489 c 0,-0.76450161 0.60452734,-1.3841487 1.34999391,-1.3841487"
     id="path260" />
</svg>
