<?xml version="1.0" encoding="UTF-8" standalone="no"?>
<svg
   width="100"
   height="100"
   viewBox="0 0 3 3"
   version="1.1"
   id="svg6"
   xmlns="http://www.w3.org/2000/svg"
   xmlns:svg="http://www.w3.org/2000/svg">
  <defs
     id="defs10" />
  <rect
     id="rect224"
     width="2.7"
     height="2.7"
     x="0.15000001"
     y="0.15000001"
     fill="none" />
  <path
     d="M 2.3495737,2.3296494 C 2.2358103,2.4318831 2.3623641,2.535378 2.4745961,2.4694439 2.4995467,2.4441333 2.4738757,2.3550501 2.3496637,2.3296494 Z M 0.71608418,2.4946647 C 0.8043565,2.5711376 0.94090853,2.47566 0.98171197,2.3690116 0.89614186,2.2553385 0.57574911,2.3731585 0.71608418,2.4946647 Z M 2.3964121,2.225614 c 0,0.050622 0.3729957,0.083858 0.3729957,-0.01189 C 2.7336488,2.147699 2.6649222,2.1036535 2.5858374,2.1036535 c -0.083679,0 -0.1559178,0.049451 -0.188885,0.120699 z M 1.2508526,0.25858113 0.25355492,1.2790279 C -0.08332136,1.69625 0.48297304,1.6477903 0.72563202,1.7678587 0.81273344,1.8568517 0.39190836,1.9226056 0.47900979,2.0116886 0.56602117,2.1006813 1.0055816,2.1831892 1.0927731,2.2721822 1.1797845,2.361175 0.91451689,2.4556627 1.0016183,2.5445656 1.08863,2.6337386 1.2901249,2.5492447 1.3277758,2.754798 1.3545279,2.9016183 1.6906833,2.8178493 1.8549781,2.6976013 1.9420795,2.6086081 1.6884315,2.6168948 1.7755329,2.5279018 1.9919804,2.3065003 2.1936557,2.4475559 2.2677865,2.2255239 2.3043566,2.1159041 1.9490152,2.0565453 2.0362066,1.9675525 2.2867921,1.8211825 3.1526722,1.7259744 2.7417553,1.3151475 L 1.7082477,0.25858113 c -0.059359,-0.0566564 -0.1399747,-0.091515 -0.2286975,-0.091515 -0.088723,0 -0.1693389,0.0348586 -0.2287876,0.0916051 z m 0.3970456,0.0716988 0.3945235,0.40073859 c 0.018645,0.020627 0.029994,0.0480093 0.029994,0.0781841 0,0.0203567 -0.00522,0.0394523 -0.014322,0.056116 L 2.0583648,0.86468812 1.8625442,0.70804967 1.8240827,0.94007994 1.6603284,0.85369911 1.3983036,1.0191647 1.3115624,0.67021866 1.170777,0.91377837 H 0.95541043 c -0.0878221,0 -0.0980004,-0.11142137 -0.018375,-0.19113673 C 1.0762895,0.57239844 1.2360807,0.41918281 1.3230019,0.33036999 c 0.041975,-0.0408034 0.099262,-0.065934 0.1624931,-0.065934 0.063231,0 0.1205189,0.0251306 0.1624933,0.0660242 l -9e-5,-9.007e-5 z M 1.012247,1.8233442 c 0.026662,0.016574 0.4297424,0.098452 0.5282832,0.1148442 0.034138,0.00721 0.00991,0.042335 -0.037111,0.066114 C 1.3973127,2.0325857 0.88245055,1.8234342 1.0123371,1.8234342 Z"
     id="path491"
     style="stroke-width:0.0900738" />
</svg>
