<?xml version="1.0" encoding="UTF-8" standalone="no"?>
<svg
   width="100"
   height="100"
   viewBox="0 0 3 3"
   version="1.1"
   id="svg6"
   xmlns="http://www.w3.org/2000/svg"
   xmlns:svg="http://www.w3.org/2000/svg">
  <defs
     id="defs10" />
  <rect
     id="rect224"
     width="2.7"
     height="2.7"
     x="0.15000001"
     y="0.15000001"
     fill="none" />
  <rect
     width="2.7000008"
     height="2.7000008"
     rx="0.43689319"
     fill="black"
     id="rect8"
     x="0.1499996"
     y="0.1499996"
     ry="0.43689319" />
  <path
     d="M 1.3739831,1.3863874 V 2.205704 q 0,0.2043942 -0.1013033,0.2957193 -0.1003095,0.090456 -0.32079288,0.090456 -0.12712536,0 -0.1976402,-0.018265 V 2.4014008 q 0.11123468,0.00696 0.15692036,0.00696 0.12215952,0 0.16685202,-0.040009 0.044693,-0.040009 0.044693,-0.1626456 V 1.3863874 Z"
     id="path2345"
     fill="white" />
  <path
     d="M 1.5169991,2.2874616 1.754366,2.2431041 q 0.042706,0.1765618 0.327745,0.1765618 0.1301049,0 0.1996266,-0.045228 0.070515,-0.045228 0.070515,-0.1121993 0,-0.048707 -0.031781,-0.089586 -0.031781,-0.041749 -0.1360639,-0.065232 L 1.9251913,2.048278 Q 1.7921064,2.0178352 1.7285437,1.9795656 1.664981,1.9404263 1.6262475,1.8699756 q -0.03774,-0.070451 -0.03774,-0.150469 0,-0.1591666 0.1350707,-0.2548405 0.1350707,-0.096544 0.3456221,-0.096544 0.1747974,0 0.3118544,0.066971 0.1380502,0.066971 0.1757906,0.1896082 L 2.3244437,1.6751487 Q 2.2708127,1.5403355 2.0741658,1.5403355 q -0.1142142,0 -0.1747975,0.041748 -0.05959,0.041748 -0.05959,0.106111 0,0.1017623 0.1887017,0.1426411 l 0.2304147,0.050446 q 0.2095582,0.046097 0.2810661,0.1365528 0.071508,0.089585 0.071508,0.1983059 0,0.1748223 -0.1509614,0.2757148 -0.149968,0.1000231 -0.3893213,0.1000231 -0.2016128,0 -0.3535673,-0.07393 Q 1.5666575,2.4440192 1.5169991,2.2874616 Z"
     id="path2347"
     fill="white" />
</svg>
