<?xml version="1.0" encoding="UTF-8"?>
<svg width="100" height="100" version="1.1" viewBox="0 0 3 3" xmlns="http://www.w3.org/2000/svg">
 <rect x=".15" y=".15" width="2.7" height="2.7" fill="none"/>
 <path d="m0.96 0.15c-0.22367 0-0.405 0.18133-0.405 0.405v1.89c0 0.22368 0.18133 0.405 0.405 0.405h1.08c0.22368 0 0.405-0.18132 0.405-0.405v-1.89c0-0.22367-0.18132-0.405-0.405-0.405zm-0.135 0.405c0-0.074558 0.060442-0.135 0.135-0.135h1.08c0.07456 0 0.135 0.060442 0.135 0.135v1.89c0 0.07456-0.06044 0.135-0.135 0.135h-1.08c-0.074558 0-0.135-0.06044-0.135-0.135zm0.405 1.62c-0.074558 0-0.135 0.06044-0.135 0.135s0.060442 0.135 0.135 0.135h0.54c0.07456 0 0.135-0.06044 0.135-0.135 0-0.07456-0.06044-0.135-0.135-0.135z" clip-rule="evenodd" fill="currentColor" fill-rule="evenodd" stroke-width=".135"/>
</svg>
