<?xml version="1.0" encoding="UTF-8" standalone="no"?>
<svg
   width="100"
   height="100"
   viewBox="0 0 3 3"
   version="1.1"
   id="svg6"
   xmlns="http://www.w3.org/2000/svg"
   xmlns:svg="http://www.w3.org/2000/svg">
  <defs
     id="defs10" />
  <rect
     id="rect224"
     width="2.7"
     height="2.7"
     x="0.15000001"
     y="0.15000001"
     fill="none" />
  <path
     d="m 2.1171982,0.29338812 c 0.079364,-0.0910015 0.1941778,-0.1433838 0.3148128,-0.1433838 0.2306834,0 0.4179891,0.18729939 0.4179891,0.4179891 0,0.12063499 -0.052401,0.23597985 -0.1433838,0.31534431 L 1.6103261,1.8378292 1.555799,1.7833021 1.2171744,1.4446775 1.162147,1.3896501 Z M 1.0420717,1.509254 1.097099,1.5642813 1.4357237,1.902906 1.490751,1.9579333 1.389163,2.3992028 C 1.3685277,2.489679 1.2997435,2.5616335 1.2103303,2.5865022 L 0.27012405,2.8499957 0.7748813,2.3452384 c 0.0137568,0.0037 0.0285767,0.00582 0.0438968,0.00582 0.0936528,0 0.16930919,-0.075663 0.16930919,-0.1693092 0,-0.093653 -0.0756626,-0.1693092 -0.16930919,-0.1693092 -0.0936528,0 -0.16930919,0.075663 -0.16930919,0.1693092 0,0.01532 0.002116,0.02964 0.00582,0.043897 L 0.14999995,2.7298778 0.41349347,1.7902006 C 0.43838085,1.7007811 0.51031662,1.6320031 0.60079286,1.6113679 L 1.0420623,1.5097799 Z"
     id="path354" />
</svg>
