<?xml version="1.0" encoding="UTF-8" standalone="no"?>
<svg
   width="100"
   height="100"
   viewBox="0 0 3 3"
   version="1.1"
   id="svg6"
   xmlns="http://www.w3.org/2000/svg"
   xmlns:svg="http://www.w3.org/2000/svg">
  <defs
     id="defs10" />
  <rect
     id="rect224"
     width="2.7"
     height="2.7"
     x="0.15000001"
     y="0.15000001"
     fill="none" />
  <path
     d="M 2.2697077,2.85 H 0.73029228 C 0.40977115,2.85 0.15000001,2.590229 0.15000001,2.2697077 V 0.7302923 c 0,-0.32052115 0.25977114,-0.58029229 0.58029227,-0.58029229 H 2.2697596 C 2.590229,0.15000001 2.85,0.40977115 2.85,0.7302923 V 2.2697596 C 2.85,2.590229 2.590229,2.85 2.2697077,2.85 Z"
     id="path172"
     fill="#393687" />
  <path
     d="M 1.0576078,1.471857 A 0.94289576,0.94289576 0 0 1 0.94003973,1.4678074 V 1.0119046 c 0.0145001,-0.00209 0.0653156,-0.00405 0.13585647,-0.00405 0.1698205,0 0.2446721,0.071324 0.2446721,0.2339604 0,0.2032621 -0.1196581,0.2300415 -0.2628298,0.2300415 m 0.018157,-0.65720525 c -0.13768531,0 -0.27367236,0.00209 -0.34251499,0.004049 -0.009014,0 -0.0108424,0.004049 -0.0108424,0.0142388 V 2.1301075 c 0,0.01019 0.003657,0.014238 0.0130631,0.014238 h 0.19137467 c 0.009014,0 0.0130631,-0.00405 0.0130631,-0.016328 V 1.6650605 H 1.0523825 c 0.2663569,0 0.4856867,-0.085956 0.4856867,-0.4091369 C 1.5362424,1.0201344 1.4312129,0.81465155 1.0758962,0.81465155"
     id="path380"
     fill="#5bc3f6" />
  <path
     d="M 1.9818233,1.1540313 A 0.29601023,0.29601023 0 0 0 1.6501508,1.4488659 c 0,0.148397 0.065315,0.2276901 0.2518569,0.3135148 0.1306312,0.058914 0.1631583,0.089482 0.1631583,0.1422574 0,0.044676 -0.029,0.091442 -0.1123427,0.091442 A 0.53127698,0.53127698 0 0 1 1.659295,1.886219 0.00731535,0.00731535 0 0 0 1.654855,1.884649 c -0.00431,0 -0.00823,0.00418 -0.00823,0.011757 v 0.1870638 a 0.02077036,0.02077036 0 0 0 0.010842,0.020378 0.51494808,0.51494808 0 0 0 0.2808563,0.079294 0.30267243,0.30267243 0 0 0 0.3388573,-0.3135148 c 0,-0.1464375 -0.079685,-0.222073 -0.266357,-0.3069833 -0.1358564,-0.061005 -0.1595007,-0.087392 -0.1595007,-0.1362482 0,-0.03919 0.023514,-0.085433 0.1123428,-0.085433 a 0.49639846,0.49639846 0 0 1 0.2518569,0.077203 0.01227933,0.01227933 0 0 0 0.00679,0.00236 c 0.00561,0 0.00954,-0.00561 0.00954,-0.014631 V 1.2394641 A 0.02926138,0.02926138 0 0 0 2.221009,1.2133379 0.4395739,0.4395739 0 0 0 1.9818233,1.1544232"
     id="path382"
     fill="#5bc3f6" />
</svg>
