<?xml version="1.0" encoding="UTF-8"?>
<svg width="100" height="100" version="1.1" viewBox="0 0 3 3" xmlns="http://www.w3.org/2000/svg">
 <rect x=".15" y=".15" width="2.7" height="2.7" fill="none"/>
 <path d="m2.6045 0.64091h-2.2091c-0.135 0-0.24545 0.11045-0.24545 0.24545v0.98182h2.7v-0.98182c0-0.135-0.11045-0.24545-0.24545-0.24545z" fill="#4caf50"/>
 <path d="m0.15 1.8682v0.24545c0 0.135 0.11045 0.24545 0.24545 0.24545h1.0432v-0.30682c0-0.036818 0.024545-0.061363 0.061363-0.061363s0.061363 0.024546 0.061363 0.061363v0.30682h1.0432c0.135 0 0.24545-0.11045 0.24545-0.24545v-0.24545z" fill="#37474f"/>
 <path d="m0.45682 1.9909h0.12273v0.36818h-0.12273zm0.24545 0h0.12273v0.36818h-0.12273zm0.24545 0h0.12273v0.36818h-0.12273zm0.24545 0h0.12273v0.36818h-0.12273zm0.49091 0h0.12273v0.36818h-0.12273zm0.24545 0h0.12273v0.36818h-0.12273zm0.24545 0h0.12273v0.36818h-0.12273zm0.24545 0h0.12273v0.36818h-0.12273z" fill="#ff9800"/>
 <path d="m1.2545 1.0091h0.49091v0.61364h-0.49091zm0.73636 0h0.49091v0.61364h-0.49091zm-1.4727 0h0.49091v0.61364h-0.49091z" fill="#37474f"/>
</svg>
