<?xml version="1.0" encoding="UTF-8"?>
<svg width="100" height="100" version="1.1" viewBox="0 0 3 3" xmlns="http://www.w3.org/2000/svg">
 <rect x=".15" y=".15" width="2.7" height="2.7" fill="none"/>
 <path d="m1.6067 1.4799c-0.033593 0.011217-0.069426 0.017443-0.10673 0.017443-0.037303 0-0.073143-0.00623-0.10673-0.017443-0.24401 0.040073-0.37172 0.21942-0.37172 0.43705h0.9569c0-0.21763-0.12769-0.39697-0.37172-0.43705z"/>
 <path d="m1.5 1.4198c0.14465 0 0.26187-0.11728 0.26187-0.26191v-0.074287c0-0.14463-0.11722-0.26187-0.26187-0.26187-0.14465 0-0.26187 0.11724-0.26187 0.26187v0.074287c0 0.14463 0.11722 0.26191 0.26187 0.26191z"/>
 <path d="m2.1455 0.15h-1.291c-0.24969 0-0.45289 0.20325-0.45289 0.45298v1.7941c0 0.24973 0.20321 0.45289 0.45289 0.45289h1.1542l0.049138-0.049048 0.49164-0.49164 0.049049-0.049096v-1.6572c0-0.24973-0.20321-0.45298-0.45299-0.45298zm0.28528 2.0407h-0.2539c-0.13121 0-0.23769 0.10643-0.23769 0.23769v0.25386h-1.0847c-0.1575 0-0.28518-0.12773-0.28518-0.28518v-1.7941c0-0.15754 0.12768-0.28527 0.28518-0.28527h1.291c0.15755 0 0.28527 0.12773 0.28527 0.28527v1.5878z"/>
</svg>
