<?xml version="1.0" encoding="UTF-8" standalone="no"?>
<svg
   width="100"
   height="100"
   version="1.1"
   viewBox="0 0 3 3"
   id="svg8"
   sodipodi:docname="typescript - Copy.svg"
   inkscape:version="1.2.2 (b0a8486541, 2022-12-01)"
   xmlns:inkscape="http://www.inkscape.org/namespaces/inkscape"
   xmlns:sodipodi="http://sodipodi.sourceforge.net/DTD/sodipodi-0.dtd"
   xmlns="http://www.w3.org/2000/svg"
   xmlns:svg="http://www.w3.org/2000/svg">
  <defs
     id="defs12" />
  <sodipodi:namedview
     id="namedview10"
     pagecolor="#ffffff"
     bordercolor="#000000"
     borderopacity="0.25"
     inkscape:showpageshadow="2"
     inkscape:pageopacity="0.0"
     inkscape:pagecheckerboard="0"
     inkscape:deskcolor="#d1d1d1"
     showgrid="false"
     inkscape:zoom="8.47"
     inkscape:cx="30.342385"
     inkscape:cy="50.059032"
     inkscape:window-width="1920"
     inkscape:window-height="1027"
     inkscape:window-x="1912"
     inkscape:window-y="-8"
     inkscape:window-maximized="1"
     inkscape:current-layer="svg8" />
  <rect
     x=".15"
     y=".15"
     width="2.7"
     height="2.7"
     fill="none"
     id="rect2" />
  <rect
     x=".15"
     y=".15"
     width="2.7"
     height="2.7"
     ry=".47586"
     fill="#3178c6"
     id="rect4" />
  <path
     d="m1.3787 1.6477h0.3375v-0.21621h-0.94395v0.21621h0.3375v0.96504h0.26895zm0.44297 0.9123c0.042717 0.02214 0.094921 0.038507 0.15293 0.049549 0.058008 0.011102 0.12129 0.016367 0.18457 0.016367 0.063281 0 0.12129-0.00577 0.1793-0.017937 0.058008-0.012107 0.10547-0.032173 0.14766-0.058008 0.042717-0.02797 0.079101-0.063281 0.1002-0.11074 0.021093-0.047476 0.037442-0.1002 0.037442-0.16875 0-0.04798-0.00738-0.089649-0.021619-0.12656-0.014242-0.036938-0.034808-0.068556-0.063281-0.094923-0.026893-0.027969-0.058008-0.052745-0.094921-0.073831-0.036915-0.021076-0.079103-0.043216-0.12656-0.063283-0.034802-0.014237-0.063281-0.027969-0.094922-0.041646-0.02742-0.013732-0.051152-0.027409-0.068555-0.041141-0.019511-0.014237-0.034275-0.028979-0.044824-0.04428-0.010547-0.015807-0.015824-0.033238-0.015824-0.052745 0-0.017937 0.00469-0.034303 0.014243-0.049045 0.00955-0.014741 0.022673-0.026905 0.03955-0.037442 0.016877-0.010535 0.03797-0.018441 0.063281-0.02427 0.024786-0.00577 0.052206-0.00846 0.084374-0.00846 0.022146 0 0.045351 0.00164 0.068555 0.00497 0.024259 0.00333 0.049045 0.00846 0.073829 0.015302 0.024786 0.00683 0.049045 0.015302 0.073829 0.02584 0.023206 0.010535 0.044824 0.022701 0.063281 0.036377v-0.24786c-0.040076-0.015302-0.084374-0.026905-0.13184-0.034304-0.047464-0.0074013-0.1002-0.011102-0.16348-0.011102-0.063281 0-0.12129 0.00683-0.1793 0.020067-0.058008 0.013172-0.10547 0.034304-0.14766 0.063283-0.042717 0.028475-0.073829 0.063283-0.1002 0.11074-0.024786 0.04428-0.036915 0.094923-0.036915 0.15821 0 0.0791 0.022673 0.14766 0.068555 0.20039 0.045351 0.058008 0.11602 0.1002 0.20566 0.14238 0.036388 0.014741 0.068555 0.029539 0.1002 0.043776 0.031641 0.014237 0.058008 0.028979 0.0791 0.04428 0.022673 0.015302 0.040604 0.032173 0.052733 0.05011 0.013184 0.017937 0.020038 0.039011 0.020038 0.063283 0 0.016871-0.00412 0.032678-0.012124 0.047476-0.00802 0.014741-0.020566 0.027409-0.037443 0.037947-0.016877 0.010535-0.037442 0.019001-0.063281 0.025336-0.024786 0.00583-0.052733 0.00897-0.089648 0.00897-0.058008 0-0.11601-0.010029-0.16875-0.030044-0.058008-0.020067-0.11074-0.05011-0.14818-0.081421z"
     fill="#ffffff"
     stroke-width=".0052734"
     id="path6" />
  <g
     id="g231"
     transform="translate(-0.23907912,-0.0690673)">
    <rect
       id="rect224"
       width="2.7"
       height="2.7"
       x="0.38907912"
       y="0.21906732"
       fill="none" />
    <rect
       width="2.7000008"
       height="2.7000008"
       rx="0.43689319"
       fill="#000000"
       id="rect8"
       x="0.38907874"
       y="0.21906692"
       ry="0.43689319" />
    <path
       d="m 1.6130622,1.4554547 v 0.8193166 q 0,0.2043942 -0.1013033,0.2957193 -0.1003095,0.090456 -0.3207929,0.090456 -0.1271253,0 -0.19764016,-0.018265 V 2.4704681 q 0.11123466,0.00696 0.15692036,0.00696 0.1221595,0 0.166852,-0.040009 0.044693,-0.040009 0.044693,-0.1626456 V 1.4554547 Z"
       id="path2345"
       fill="#ffffff" />
    <path
       d="m 1.7560782,2.3565289 0.2373669,-0.044357 q 0.042706,0.1765618 0.327745,0.1765618 0.1301049,0 0.1996266,-0.045228 0.070515,-0.045228 0.070515,-0.1121993 0,-0.048707 -0.031781,-0.089586 -0.031781,-0.041749 -0.1360639,-0.065232 L 2.1642704,2.1173453 q -0.1330849,-0.030443 -0.1966476,-0.068712 -0.063563,-0.039139 -0.1022962,-0.10959 -0.03774,-0.070451 -0.03774,-0.150469 0,-0.1591666 0.1350707,-0.2548405 0.1350707,-0.096544 0.3456221,-0.096544 0.1747974,0 0.3118544,0.066971 0.1380502,0.066971 0.1757906,0.1896082 L 2.5635228,1.744216 Q 2.5098918,1.6094028 2.3132449,1.6094028 q -0.1142142,0 -0.1747975,0.041748 -0.05959,0.041748 -0.05959,0.106111 0,0.1017623 0.1887017,0.1426411 l 0.2304147,0.050446 q 0.2095582,0.046097 0.2810661,0.1365528 0.071508,0.089585 0.071508,0.1983059 0,0.1748223 -0.1509614,0.2757148 -0.149968,0.1000231 -0.3893213,0.1000231 -0.2016128,0 -0.3535673,-0.07393 Q 1.8057366,2.5130865 1.7560782,2.3565289 Z"
       id="path2347"
       fill="#ffffff" />
  </g>
</svg>
